<svg width="28" height="34" viewBox="0 0 28 34" fill="none" xmlns="http://www.w3.org/2000/svg">
<path fill-rule="evenodd" clip-rule="evenodd" d="M13.837 0C7.94948 0 3.1626 4.82958 3.1626 10.7867C3.1626 12.8046 4.05134 15.3079 5.34492 17.8049C8.19302 23.3034 12.9372 28.8415 12.9372 28.8415C13.1618 29.104 13.4907 29.2558 13.837 29.2558C14.1833 29.2558 14.5123 29.104 14.7368 28.8415C14.7368 28.8415 19.481 23.3034 22.3291 17.8049C23.6227 15.3079 24.5114 12.8046 24.5114 10.7867C24.5114 4.82958 19.7246 0 13.837 0ZM13.837 2.37209C18.4231 2.37209 22.1393 6.14688 22.1393 10.7867C22.1393 13.105 20.6686 16.1255 18.9702 18.942C17.1485 21.9624 15.0167 24.7362 13.837 26.2037C12.6573 24.7362 10.5256 21.9624 8.70381 18.942C7.00539 16.1255 5.53469 13.105 5.53469 10.7867C5.53469 6.14688 9.25097 2.37209 13.837 2.37209Z" fill="#FF6B00"/>
<path fill-rule="evenodd" clip-rule="evenodd" d="M13.8371 6.3252C11.4366 6.3252 9.48828 8.27347 9.48828 10.674C9.48828 13.0746 11.4366 15.0229 13.8371 15.0229C16.2377 15.0229 18.186 13.0746 18.186 10.674C18.186 8.27347 16.2377 6.3252 13.8371 6.3252ZM13.8371 8.69729C14.9283 8.69729 15.8139 9.58287 15.8139 10.674C15.8139 11.7652 14.9283 12.6508 13.8371 12.6508C12.746 12.6508 11.8604 11.7652 11.8604 10.674C11.8604 9.58287 12.746 8.69729 13.8371 8.69729Z" fill="#FF6B00"/>
<path fill-rule="evenodd" clip-rule="evenodd" d="M21.4026 25.5035C22.6883 25.8893 23.7478 26.3669 24.48 26.9267C24.9544 27.2873 25.3023 27.6399 25.3023 28.0701C25.3023 28.3231 25.1584 28.5524 24.956 28.7817C24.6207 29.1596 24.1226 29.4996 23.5059 29.8159C21.3267 30.9308 17.8033 31.6282 13.8372 31.6282C9.87107 31.6282 6.34772 30.9308 4.16856 29.8159C3.55181 29.4996 3.05367 29.1596 2.71842 28.7817C2.516 28.5524 2.37209 28.3231 2.37209 28.0701C2.37209 27.6399 2.72 27.2873 3.19442 26.9267C3.9266 26.3669 4.98614 25.8893 6.27181 25.5035C6.89805 25.3153 7.25386 24.6527 7.06567 24.0264C6.87749 23.3986 6.21488 23.0428 5.58865 23.231C3.63088 23.8209 2.10958 24.6289 1.19553 25.5224C0.392186 26.3052 0 27.1813 0 28.0701C0 29.1802 0.627814 30.2872 1.904 31.2107C4.14326 32.8301 8.64074 34.0003 13.8372 34.0003C19.0337 34.0003 23.5312 32.8301 25.7704 31.2107C27.0466 30.2872 27.6744 29.1802 27.6744 28.0701C27.6744 27.1813 27.2822 26.3052 26.4789 25.5224C25.5648 24.6289 24.0435 23.8209 22.0858 23.231C21.4595 23.0428 20.7969 23.3986 20.6087 24.0264C20.4206 24.6527 20.7764 25.3153 21.4026 25.5035Z" fill="#FF6B00"/>
</svg>
