<svg width="34" height="34" viewBox="0 0 34 34" fill="none" xmlns="http://www.w3.org/2000/svg">
<path d="M26.8709 21.062C26.1748 20.3372 25.3352 19.9497 24.4454 19.9497C23.5628 19.9497 22.716 20.33 21.9913 21.0548L19.7237 23.3152C19.5371 23.2147 19.3505 23.1214 19.1711 23.0282C18.9128 22.899 18.6688 22.777 18.4607 22.6478C16.3366 21.2988 14.4063 19.5407 12.5549 17.2659C11.6579 16.1321 11.0551 15.1777 10.6174 14.2089C11.2058 13.6707 11.7512 13.111 12.2822 12.5728C12.4831 12.3719 12.6841 12.1638 12.885 11.9629C14.3919 10.4559 14.3919 8.50407 12.885 6.99713L10.926 5.0381C10.7035 4.81564 10.4739 4.58601 10.2586 4.35638C9.82805 3.91147 9.37597 3.45221 8.90953 3.02166C8.21347 2.33277 7.38106 1.9668 6.50559 1.9668C5.63013 1.9668 4.78337 2.33277 4.06578 3.02166C4.0586 3.02883 4.0586 3.02883 4.05142 3.03601L1.61161 5.49736C0.693088 6.41588 0.169245 7.53532 0.0544302 8.83417C-0.117792 10.9295 0.499338 12.8814 0.97295 14.1587C2.13545 17.2946 3.87203 20.2008 6.46254 23.3152C9.6056 27.0682 13.3873 30.0319 17.7072 32.1201C19.3577 32.9022 21.5607 33.8279 24.022 33.9858C24.1727 33.993 24.3306 34.0002 24.4741 34.0002C26.1318 34.0002 27.5239 33.4046 28.6146 32.2205C28.6218 32.2062 28.6362 32.199 28.6433 32.1847C29.0165 31.7326 29.4471 31.3235 29.8991 30.8858C30.2077 30.5916 30.5234 30.283 30.832 29.9601C31.5424 29.221 31.9156 28.3599 31.9156 27.4772C31.9156 26.5874 31.5352 25.7335 30.8105 25.0159L26.8709 21.062ZM29.4399 28.6182C29.4327 28.6182 29.4327 28.6254 29.4399 28.6182C29.16 28.9196 28.873 29.1923 28.5644 29.4937C28.098 29.9386 27.6244 30.405 27.1795 30.9289C26.4547 31.7039 25.6008 32.0698 24.4813 32.0698C24.3737 32.0698 24.2589 32.0698 24.1512 32.0627C22.02 31.9263 20.0394 31.0939 18.554 30.3835C14.4924 28.4173 10.926 25.6258 7.96231 22.0881C5.51532 19.1388 3.8792 16.4119 2.79564 13.4842C2.12828 11.6974 1.88429 10.3052 1.99193 8.99204C2.06369 8.15245 2.38661 7.45639 2.98221 6.86078L5.4292 4.41379C5.78082 4.0837 6.15397 3.9043 6.51995 3.9043C6.97203 3.9043 7.338 4.17698 7.56763 4.40661C7.57481 4.41379 7.58198 4.42097 7.58916 4.42814C8.02689 4.83717 8.4431 5.26055 8.88083 5.71263C9.10328 5.94226 9.33291 6.17189 9.56254 6.4087L11.5216 8.36773C12.2822 9.12838 12.2822 9.83162 11.5216 10.5923C11.3135 10.8004 11.1125 11.0085 10.9044 11.2094C10.3017 11.8265 9.72759 12.4006 9.10328 12.9603C9.08893 12.9747 9.07458 12.9819 9.0674 12.9962C8.45027 13.6133 8.56509 14.2161 8.69425 14.6251C8.70143 14.6467 8.70861 14.6682 8.71578 14.6897C9.22527 15.924 9.94287 17.0865 11.0336 18.4714L11.0408 18.4786C13.0213 20.9184 15.1095 22.8201 17.413 24.2768C17.7072 24.4633 18.0086 24.614 18.2957 24.7576C18.554 24.8867 18.798 25.0087 19.0061 25.1379C19.0348 25.1522 19.0635 25.1738 19.0922 25.1881C19.3362 25.3101 19.5658 25.3675 19.8026 25.3675C20.3982 25.3675 20.7713 24.9944 20.8933 24.8724L23.3475 22.4182C23.5915 22.1742 23.979 21.88 24.4311 21.88C24.876 21.88 25.242 22.1599 25.4644 22.4039C25.4716 22.411 25.4716 22.411 25.4788 22.4182L29.4327 26.3721C30.1718 27.1041 30.1718 27.8576 29.4399 28.6182Z" fill="#FF6B00"/>
<path d="M18.3746 8.08778C20.2546 8.40352 21.9625 9.29334 23.3259 10.6568C24.6894 12.0202 25.572 13.7281 25.8949 15.6082C25.9739 16.0818 26.3829 16.4119 26.8493 16.4119C26.9067 16.4119 26.957 16.4047 27.0144 16.3975C27.5454 16.3114 27.897 15.8091 27.8109 15.2781C27.4234 13.0033 26.347 10.9295 24.7037 9.28616C23.0604 7.64288 20.9866 6.56649 18.7118 6.17899C18.1808 6.09287 17.6857 6.44449 17.5924 6.96834C17.4991 7.49218 17.8435 8.00167 18.3746 8.08778Z" fill="#FF6B00"/>
<path d="M33.9606 14.9981C33.322 11.2523 31.5567 7.84371 28.8442 5.13121C26.1317 2.41871 22.7231 0.653427 18.9773 0.0147691C18.4534 -0.078518 17.9583 0.280279 17.865 0.804122C17.7789 1.33514 18.1305 1.83028 18.6615 1.92357C22.0055 2.49047 25.0553 4.07635 27.4808 6.49464C29.9062 8.9201 31.4849 11.9699 32.0518 15.3139C32.1308 15.7875 32.5398 16.1176 33.0062 16.1176C33.0636 16.1176 33.1139 16.1104 33.1713 16.1032C33.6951 16.0243 34.0539 15.522 33.9606 14.9981Z" fill="#FF6B00"/>
</svg>
