<svg width="34" height="26" viewBox="0 0 34 26" fill="none" xmlns="http://www.w3.org/2000/svg">
<path d="M31.0117 0H2.98828C1.3426 0 0 1.34114 0 2.98828V22.9102C0 24.5517 1.33662 25.8984 2.98828 25.8984H31.0117C32.6533 25.8984 34 24.5618 34 22.9102V2.98828C34 1.34672 32.6634 0 31.0117 0ZM30.5991 1.99219L17.0634 15.528L3.41056 1.99219H30.5991ZM1.99219 22.4976V3.3913L11.5865 12.9033L1.99219 22.4976ZM3.40086 23.9062L13.0012 14.3059L16.3652 17.641C16.7546 18.027 17.383 18.0258 17.7708 17.6379L21.0508 14.3579L30.5991 23.9062H3.40086ZM32.0078 22.4976L22.4595 12.9492L32.0078 3.4008V22.4976Z" fill="#FF6B00"/>
</svg>
