<svg width="55" height="70" viewBox="0 0 55 70" fill="none" xmlns="http://www.w3.org/2000/svg">
<g clip-path="url(#clip0_136_2836)">
<path d="M14.9852 62.5767C14.448 62.8584 13.8624 63.0362 13.2592 63.1006C12.7248 63.1606 12.1877 63.1929 11.65 63.1975C10.7759 63.2144 9.91963 62.9488 9.20854 62.4402C8.51141 61.9353 8.16211 61.1017 8.16064 59.9393C8.16064 58.8547 8.47765 58.0791 9.11167 57.6124C9.83249 57.1126 10.6632 56.7939 11.5333 56.6834C11.6905 56.6799 11.8469 56.66 12 56.6239C12.1805 56.5865 12.3875 56.5535 12.6208 56.5271C13.7568 56.3803 14.3247 56.0442 14.3247 55.5188C14.3329 55.3415 14.2766 55.1673 14.166 55.0284C14.0555 54.8895 13.8984 54.7955 13.7237 54.7637C13.3669 54.6542 12.9963 54.5956 12.623 54.5898C12.2929 54.584 11.9643 54.6362 11.6522 54.7439C11.5142 54.7927 11.3878 54.8695 11.281 54.9696C11.1742 55.0696 11.0892 55.1906 11.0314 55.3251H8.43362C8.52313 54.5478 8.91352 53.8366 9.52115 53.3437C10.219 52.7493 11.2119 52.4521 12.5063 52.4521C13.9534 52.4521 15.0388 52.698 15.7623 53.1896C16.1211 53.4254 16.4126 53.7501 16.6086 54.132C16.8046 54.514 16.8983 54.9402 16.8806 55.3691V58.8914C16.8806 59.9188 16.6928 60.726 16.3171 61.313C15.9968 61.848 15.5362 62.285 14.9852 62.5767ZM14.3644 57.8061C13.8806 58.03 13.3733 58.199 12.852 58.3102L11.9604 58.5062C11.5879 58.5873 11.2414 58.7598 10.9521 59.0081C10.7818 59.261 10.6878 59.5575 10.6813 59.8623C10.6735 60.0329 10.7002 60.2034 10.76 60.3635C10.8198 60.5235 10.9113 60.6698 11.0292 60.7935C11.3169 61.014 11.6759 61.1206 12.0374 61.0929C12.3498 61.1208 12.6645 61.0799 12.9594 60.973C13.2543 60.8661 13.5221 60.6958 13.744 60.4741C13.9659 60.2524 14.1364 59.9848 14.2436 59.69C14.3508 59.3953 14.392 59.0806 14.3644 58.7682V57.8061Z" fill="#606060"/>
<path d="M17.438 59.5915H20.0797C20.078 59.8174 20.1298 60.0404 20.2308 60.2425C20.3318 60.4445 20.4792 60.6197 20.6609 60.7539C21.1289 61.0329 21.6688 61.1677 22.213 61.1413C22.6299 61.1524 23.043 61.0593 23.415 60.8705C23.5536 60.8034 23.6707 60.6987 23.7528 60.5683C23.8349 60.4379 23.8788 60.2871 23.8795 60.1331C23.8795 59.6678 23.3372 59.3193 22.2526 59.0874C21.8983 59.034 21.5482 58.956 21.2047 58.854C19.8354 58.5194 18.9174 58.1165 18.4529 57.652C18.1951 57.4177 17.9919 57.1297 17.8576 56.8082C17.7233 56.4868 17.6612 56.1398 17.6757 55.7918C17.6663 55.3259 17.7627 54.864 17.9575 54.4407C18.1524 54.0175 18.4407 53.6439 18.8007 53.3481C19.5756 52.7537 20.5839 52.4565 21.8255 52.4565C23.1684 52.4565 24.2412 52.7537 25.044 53.3481C25.4105 53.66 25.707 54.0458 25.9142 54.4802C26.1213 54.9145 26.2344 55.3877 26.2461 55.8688H24.5773C24.3471 55.8751 24.1197 55.8164 23.9212 55.6997C23.7227 55.5829 23.561 55.4126 23.4546 55.2084C23.3489 55.1071 23.2455 55.0036 23.1442 54.9002C22.7666 54.6472 22.3167 54.5243 21.8629 54.5501C21.4617 54.5244 21.0608 54.6049 20.7006 54.7835C20.5864 54.859 20.4942 54.9633 20.4331 55.0858C20.372 55.2083 20.3443 55.3447 20.3527 55.4814C20.3527 55.8952 21.0242 56.2438 22.3671 56.5271C22.5004 56.5739 22.6364 56.6129 22.7743 56.6437C22.8826 56.6692 22.9934 56.6825 23.1046 56.6834C24.4254 57.018 25.339 57.4076 25.8586 57.8457C26.1052 58.0866 26.2982 58.3768 26.4249 58.6973C26.5516 59.0179 26.6092 59.3616 26.5939 59.706C26.5939 60.8449 26.1807 61.7255 25.3545 62.3477C24.5781 62.9157 23.4142 63.2004 21.8629 63.2019C20.3953 63.2019 19.2946 62.904 18.5607 62.3081C17.8122 61.721 17.438 60.8551 17.438 59.7104V59.5915Z" fill="#606060"/>
<path d="M31.9849 63.0015C31.0598 63.0533 30.1323 63.0408 29.2089 62.9641C28.2138 62.8863 27.7163 62.253 27.7163 61.0642V49.665H29.112C29.2792 49.6656 29.4445 49.7002 29.5978 49.7668C29.7511 49.8334 29.8892 49.9307 30.0036 50.0525C30.1282 50.1732 30.2268 50.318 30.2934 50.4782C30.36 50.6383 30.3933 50.8103 30.3911 50.9837V52.7273H31.9805V53.271C31.9867 53.4476 31.9553 53.6234 31.8885 53.787C31.8217 53.9505 31.721 54.0981 31.5931 54.2199C31.4701 54.3401 31.3244 54.4347 31.1646 54.4982C31.0047 54.5617 30.8338 54.5928 30.6619 54.5897H30.3911V60.3267C30.3911 60.767 30.6487 60.9872 31.1682 60.9872H31.9805L31.9849 63.0015Z" fill="#606060"/>
<path d="M32.6145 63.0016V58.0109C32.587 57.1429 32.7368 56.2785 33.0548 55.4704C33.3199 54.8284 33.7396 54.262 34.2766 53.8215C34.7878 53.424 35.3742 53.1342 36.0004 52.9695C36.664 52.7885 37.3489 52.6975 38.0368 52.6987H38.4242V55.4506H37.5326C36.7826 55.4506 36.2271 55.6318 35.8661 55.9943C35.5051 56.3568 35.3238 56.9256 35.3223 57.7005V63.0104L32.6145 63.0016Z" fill="#606060"/>
<path d="M45.6912 62.5767C45.154 62.8584 44.5685 63.0362 43.9653 63.1006C43.4309 63.1605 42.8938 63.1929 42.356 63.1975C41.4819 63.2144 40.6257 62.9488 39.9146 62.4402C39.2175 61.9353 38.8682 61.1017 38.8667 59.9393C38.8667 58.8547 39.1837 58.0791 39.8177 57.6124C40.5386 57.1126 41.3692 56.7939 42.2393 56.6834C42.3966 56.6799 42.553 56.66 42.7061 56.6239C42.8866 56.5865 43.0935 56.5535 43.3247 56.5271C44.4621 56.3803 45.0308 56.0442 45.0308 55.5188C45.039 55.3415 44.9826 55.1673 44.8721 55.0284C44.7616 54.8895 44.6044 54.7955 44.4298 54.7637C44.0729 54.6542 43.7023 54.5956 43.3291 54.5898C42.9997 54.5842 42.6718 54.6364 42.3604 54.7439C42.2225 54.7927 42.0961 54.8695 41.9892 54.9696C41.8824 55.0696 41.7974 55.1906 41.7396 55.3251H39.1375C39.227 54.5478 39.6174 53.8366 40.225 53.3437C40.9229 52.7493 41.9157 52.4521 43.2102 52.4521C44.6573 52.4521 45.7426 52.698 46.4662 53.1896C46.8258 53.4249 47.1185 53.7493 47.3156 54.1312C47.5127 54.5132 47.6077 54.9396 47.5911 55.3691V58.8914C47.5911 59.9188 47.4033 60.726 47.0275 61.313C46.7061 61.8486 46.2439 62.2856 45.6912 62.5767ZM45.0704 57.8061C44.5866 58.03 44.0794 58.199 43.558 58.3102L42.6664 58.5062C42.2939 58.5873 41.9474 58.7598 41.6582 59.0081C41.4878 59.261 41.3939 59.5575 41.3874 59.8623C41.3795 60.0329 41.4063 60.2034 41.4661 60.3635C41.5258 60.5235 41.6174 60.6698 41.7352 60.7935C42.0218 61.0171 42.3809 61.1269 42.7435 61.1017C43.0559 61.1297 43.3706 61.0887 43.6655 60.9818C43.9603 60.8749 44.2281 60.7046 44.45 60.4829C44.6719 60.2612 44.8425 59.9936 44.9497 59.6988C45.0569 59.4041 45.0981 59.0894 45.0704 58.777V57.8061Z" fill="#606060"/>
<path d="M11.9739 66.7483C11.7814 66.5825 11.5317 66.4987 11.2782 66.515C11.0833 66.5105 10.8906 66.5568 10.719 66.6492C10.5608 66.7362 10.424 66.8573 10.3184 67.0037C10.2094 67.1547 10.1281 67.3239 10.0784 67.5034C9.96979 67.8758 9.96979 68.2714 10.0784 68.6438C10.1281 68.8233 10.2094 68.9925 10.3184 69.1435C10.424 69.2899 10.5608 69.411 10.719 69.4979C10.8906 69.5904 11.0833 69.6367 11.2782 69.6322C11.4119 69.6329 11.5444 69.6067 11.6679 69.5552C11.7892 69.5026 11.8997 69.428 11.9937 69.335C12.0909 69.2396 12.1706 69.1278 12.2292 69.0048C12.2919 68.8734 12.33 68.7317 12.3415 68.5865H12.7818C12.7449 68.9793 12.5721 69.3468 12.2931 69.6256C12.0143 69.8784 11.6476 70.0119 11.2716 69.9977C11.0166 70.0028 10.7637 69.9501 10.5319 69.8436C10.3231 69.7473 10.1381 69.6059 9.99034 69.4297C9.84021 69.2493 9.72656 69.0414 9.65571 68.8177C9.50604 68.3299 9.50604 67.8085 9.65571 67.3207C9.72656 67.0969 9.84021 66.8891 9.99034 66.7087C10.1385 66.5318 10.3233 66.3891 10.5319 66.2904C10.7635 66.1831 11.0164 66.1297 11.2716 66.1341C11.6298 66.1227 11.9813 66.2329 12.2689 66.4467C12.4096 66.5624 12.5253 66.7056 12.6086 66.8677C12.6918 67.0297 12.7411 67.2071 12.7532 67.3889H12.3129C12.2664 67.1463 12.1483 66.9232 11.9739 66.7483Z" fill="#606060"/>
<path d="M13.823 66.2465V67.1028H13.8363C13.9362 66.8243 14.121 66.5841 14.3646 66.416C14.6179 66.2519 14.9177 66.1746 15.2188 66.1958V66.6361C15.0309 66.6236 14.8425 66.6513 14.6662 66.7176C14.5061 66.7772 14.3604 66.8697 14.2383 66.9892C14.1162 67.1086 14.0205 67.2523 13.9573 67.411C13.8899 67.5812 13.8563 67.7629 13.8583 67.946V69.8987H13.418V66.2465H13.823Z" fill="#606060"/>
<path d="M15.8463 68.6948C15.89 68.862 15.9646 69.0196 16.0664 69.1593C16.1672 69.297 16.2954 69.4124 16.4429 69.4983C16.6092 69.5921 16.798 69.6385 16.9888 69.6326C17.267 69.65 17.541 69.5584 17.7527 69.3772C17.946 69.1942 18.0796 68.9571 18.1358 68.697H18.5761C18.5077 69.0652 18.3252 69.4026 18.0543 69.6612C17.7527 69.906 17.3698 70.0279 16.9822 70.0024C16.7242 70.0092 16.4681 69.9565 16.2337 69.8483C16.0311 69.753 15.8549 69.6094 15.7208 69.4301C15.584 69.2453 15.4839 69.0361 15.4258 68.8136C15.3613 68.5724 15.3294 68.3236 15.3311 68.074C15.3306 67.8345 15.3624 67.596 15.4258 67.3651C15.4861 67.1421 15.586 66.9318 15.7208 66.7443C15.8556 66.56 16.0311 66.4093 16.2337 66.304C16.4656 66.1873 16.7227 66.1298 16.9822 66.1367C17.2289 66.1279 17.4738 66.1821 17.6937 66.2942C17.9137 66.4062 18.1014 66.5725 18.2393 66.7773C18.3733 66.9778 18.4681 67.2019 18.5188 67.4377C18.5763 67.6851 18.6 67.9391 18.5893 68.1928H15.7802C15.7812 68.3622 15.8034 68.5309 15.8463 68.6948ZM18.0477 67.3299C18.0004 67.1796 17.9257 67.0393 17.8276 66.916C17.7286 66.7952 17.6056 66.6963 17.4665 66.6254C17.315 66.5529 17.1491 66.5153 16.9811 66.5153C16.8131 66.5153 16.6472 66.5529 16.4957 66.6254C16.3555 66.6957 16.2318 66.7947 16.1325 66.916C16.0302 67.0406 15.9505 67.1822 15.8969 67.3343C15.8374 67.49 15.7982 67.6528 15.7802 67.8186H18.1468C18.1415 67.6521 18.111 67.4873 18.0565 67.3299H18.0477Z" fill="#606060"/>
<path d="M19.2868 66.8168C19.3574 66.6663 19.4631 66.5349 19.595 66.4338C19.732 66.3314 19.8875 66.2567 20.0529 66.2136C20.2428 66.165 20.4381 66.1414 20.6341 66.1432C20.7959 66.1434 20.9573 66.1588 21.1162 66.1894C21.2734 66.2166 21.4232 66.2758 21.5565 66.3633C21.6886 66.4545 21.796 66.5771 21.8691 66.7199C21.955 66.9075 21.9957 67.1126 21.988 67.3187V69.2626C21.9826 69.2986 21.9857 69.3353 21.9968 69.3698C22.008 69.4044 22.027 69.4359 22.0524 69.4619C22.0777 69.4879 22.1088 69.5077 22.1431 69.5197C22.1773 69.5318 22.2139 69.5357 22.25 69.5312C22.2992 69.5322 22.348 69.5224 22.3931 69.5026V69.879L22.2544 69.8989C22.2038 69.9017 22.1531 69.9017 22.1025 69.8989C22.0093 69.9029 21.9162 69.8872 21.8295 69.8526C21.7643 69.825 21.7085 69.7791 21.6688 69.7205C21.6296 69.6594 21.6048 69.5901 21.5962 69.518C21.5831 69.4328 21.5772 69.3466 21.5785 69.2604H21.5631C21.4896 69.3713 21.4079 69.4765 21.3188 69.5752C21.2388 69.6653 21.1461 69.7431 21.0436 69.8064C20.9351 69.87 20.8179 69.9175 20.6958 69.9473C20.5436 69.9831 20.3876 70.0001 20.2312 69.9979C20.07 69.9984 19.9094 69.9777 19.7535 69.9363C19.6116 69.9005 19.4789 69.8353 19.3639 69.7448C19.2504 69.6567 19.1598 69.5427 19.0997 69.4123C19.0329 69.2622 19.0005 69.0989 19.005 68.9346C18.9926 68.7216 19.0523 68.5107 19.1745 68.3358C19.2928 68.1875 19.4486 68.0734 19.6258 68.0056C19.8282 67.9265 20.0398 67.8732 20.2555 67.8471L20.9687 67.7568C21.0516 67.7501 21.1339 67.7383 21.2153 67.7216C21.28 67.7117 21.3412 67.686 21.3936 67.6468C21.4424 67.6088 21.4803 67.5587 21.5037 67.5015C21.5321 67.4248 21.5449 67.3432 21.5411 67.2615C21.5459 67.1335 21.5211 67.0062 21.4685 66.8895C21.4209 66.7956 21.3496 66.7159 21.2615 66.6583C21.1686 66.6005 21.0655 66.561 20.9577 66.5416C20.8348 66.5209 20.7103 66.5106 20.5857 66.5108C20.3381 66.4998 20.0938 66.5701 19.89 66.7111C19.7962 66.7904 19.7219 66.8902 19.6731 67.0028C19.6242 67.1155 19.602 67.2379 19.6082 67.3606H19.1679C19.173 67.1735 19.2133 66.989 19.2868 66.8168ZM21.5191 67.9175C21.5007 67.9461 21.4768 67.9707 21.4489 67.9899C21.4209 68.0092 21.3894 68.0228 21.3562 68.0298C21.2839 68.051 21.2104 68.0679 21.136 68.0804C20.9467 68.1135 20.753 68.1421 20.5527 68.1685C20.3663 68.1922 20.1822 68.2312 20.0023 68.2852C19.8525 68.3289 19.7136 68.4039 19.595 68.5053C19.5403 68.5588 19.4978 68.6235 19.4705 68.6949C19.4431 68.7664 19.4315 68.8429 19.4365 68.9192C19.4344 69.0235 19.457 69.1269 19.5026 69.2208C19.5487 69.3046 19.6099 69.3792 19.6831 69.441C19.761 69.5059 19.8507 69.5552 19.9473 69.5863C20.0452 69.6187 20.1478 69.6351 20.2511 69.6347C20.417 69.6349 20.5819 69.6089 20.7398 69.5576C20.8885 69.5113 21.0268 69.4365 21.1471 69.3375C21.2637 69.2378 21.3582 69.1148 21.4244 68.9764C21.4942 68.8255 21.5288 68.6606 21.5257 68.4943V67.9131L21.5191 67.9175Z" fill="#606060"/>
<path d="M24.326 66.2467V66.621H23.5819V69.0866C23.5763 69.2041 23.5966 69.3213 23.6413 69.43C23.681 69.5137 23.7822 69.5599 23.9429 69.5687C24.0709 69.5687 24.1987 69.5621 24.326 69.5489V69.9232H24.1279C24.0611 69.9265 23.9943 69.9265 23.9275 69.9232C23.8158 69.9503 23.699 69.9477 23.5886 69.9158C23.4781 69.8839 23.3779 69.8238 23.2979 69.7413C23.2178 69.6588 23.1607 69.5568 23.1321 69.4455C23.1036 69.3341 23.1046 69.2173 23.135 69.1064V66.621H22.4966V66.2467H23.135V65.146H23.5753V66.2467H24.326Z" fill="#606060"/>
<path d="M25.4247 64.8354V65.5509H24.9844V64.8354H25.4247ZM25.4247 66.24V69.8988H24.9844V66.2466L25.4247 66.24Z" fill="#606060"/>
<path d="M26.3669 66.2466L27.5139 69.4585H27.5293L28.663 66.2488H29.1231L27.756 69.8988H27.2805L25.8716 66.2422L26.3669 66.2466Z" fill="#606060"/>
<path d="M29.8916 68.6945C29.9354 68.8617 30.0101 69.0192 30.1118 69.159C30.2118 69.2966 30.3392 69.412 30.486 69.498C30.6523 69.5918 30.8411 69.6382 31.032 69.6323C31.3107 69.6494 31.5853 69.5578 31.7981 69.3769C31.9894 69.1924 32.1225 68.9559 32.1811 68.6967H32.6214C32.5538 69.0647 32.3721 69.4021 32.1019 69.6609C31.799 69.9049 31.4157 70.0266 31.0276 70.0022C30.7696 70.0089 30.5134 69.9562 30.2791 69.8481C30.0764 69.7527 29.9003 69.6091 29.7661 69.4298C29.6302 69.2445 29.5301 69.0355 29.4711 68.8134C29.4077 68.5719 29.3759 68.3233 29.3765 68.0737C29.377 67.8343 29.4089 67.596 29.4711 67.3648C29.5325 67.1423 29.6324 66.9322 29.7661 66.744C29.901 66.5597 30.0765 66.409 30.2791 66.3037C30.5109 66.187 30.7681 66.1295 31.0276 66.1364C31.2891 66.1287 31.5481 66.1902 31.7783 66.3147C31.9811 66.4277 32.1551 66.5859 32.2868 66.777C32.4199 66.978 32.5147 67.2019 32.5664 67.4375C32.6217 67.6852 32.6454 67.9389 32.6368 68.1926H29.8256C29.8265 68.362 29.8487 68.5306 29.8916 68.6945ZM32.0931 67.3296C32.045 67.1796 31.9704 67.0394 31.8729 66.9157C31.7739 66.795 31.651 66.696 31.5119 66.6251C31.3628 66.5491 31.1971 66.5112 31.0298 66.515C30.8603 66.5108 30.6924 66.5486 30.541 66.6251C30.4019 66.696 30.279 66.795 30.18 66.9157C30.0778 67.0408 29.9974 67.1822 29.9422 67.334C29.8827 67.4898 29.8435 67.6525 29.8256 67.8183H32.1921C32.1876 67.6519 32.1579 67.4871 32.1041 67.3296H32.0931Z" fill="#606060"/>
<path d="M37.3147 66.9577C37.2658 66.8593 37.195 66.7735 37.1078 66.7067C37.0173 66.6397 36.915 66.5904 36.8062 66.5614C36.6877 66.5301 36.5655 66.5145 36.4429 66.5152C36.3424 66.5159 36.2421 66.5262 36.1435 66.546C36.0447 66.5665 35.9497 66.6022 35.8617 66.6517C35.7798 66.701 35.7099 66.7679 35.657 66.8476C35.6027 66.937 35.5759 67.0403 35.58 67.1448C35.5768 67.2344 35.6031 67.3226 35.6548 67.3958C35.7038 67.4667 35.7676 67.526 35.8419 67.5697C35.9197 67.6193 36.0032 67.6593 36.0907 67.6886C36.1788 67.7172 36.2624 67.7436 36.3373 67.7612L36.9339 67.8977C37.0636 67.9167 37.1906 67.9507 37.3125 67.999C37.433 68.0462 37.5453 68.1123 37.6449 68.1949C37.7438 68.2766 37.8247 68.3778 37.8827 68.4921C37.947 68.622 37.9787 68.7655 37.9752 68.9104C37.9799 69.0886 37.9333 69.2643 37.8409 69.4167C37.7524 69.554 37.6352 69.6704 37.4974 69.7579C37.3515 69.8468 37.1914 69.9101 37.0241 69.9451C36.8542 69.9825 36.6808 70.0017 36.5068 70.0023C36.1346 70.0188 35.7676 69.9112 35.4633 69.6963C35.3208 69.5762 35.206 69.4266 35.127 69.2579C35.0479 69.0891 35.0064 68.9052 35.0054 68.7189H35.4457C35.4461 68.8504 35.476 68.9802 35.5331 69.0986C35.5902 69.2171 35.6732 69.3213 35.7759 69.4035C35.9933 69.5578 36.2559 69.6352 36.5222 69.6237C36.6354 69.6236 36.7483 69.6118 36.859 69.5884C36.9725 69.565 37.0816 69.5241 37.1826 69.4674C37.2794 69.4131 37.3629 69.3379 37.427 69.2472C37.4929 69.1533 37.5261 69.0404 37.5217 68.9258C37.5256 68.8301 37.5019 68.7353 37.4534 68.6528C37.408 68.5783 37.3463 68.5151 37.2729 68.4679C37.1924 68.4164 37.1059 68.375 37.0153 68.3446C36.9184 68.3116 36.8194 68.283 36.7203 68.2587L36.1457 68.1311C36.0089 68.096 35.8744 68.0526 35.7429 68.0012C35.627 67.9548 35.5181 67.8925 35.4192 67.8163C35.3272 67.7438 35.252 67.6522 35.1991 67.5477C35.1447 67.4236 35.1183 67.289 35.122 67.1536C35.1172 66.9866 35.16 66.8217 35.2453 66.6781C35.3266 66.5477 35.4374 66.4383 35.569 66.3589C35.7055 66.2774 35.8541 66.218 36.0092 66.1828C36.168 66.1454 36.3305 66.1262 36.4936 66.1255C36.6678 66.1244 36.8412 66.1481 37.0087 66.196C37.1613 66.2411 37.3034 66.3159 37.427 66.4161C37.5481 66.5171 37.6458 66.6434 37.7132 66.786C37.7883 66.9476 37.8295 67.1229 37.8343 67.3011H37.394C37.3928 67.1822 37.3657 67.0651 37.3147 66.9577Z" fill="#606060"/>
<path d="M40.0731 66.2467V66.621H39.3356V69.0866C39.33 69.2041 39.3503 69.3213 39.395 69.43C39.4347 69.5137 39.5359 69.5599 39.6966 69.5687C39.8246 69.5687 39.9524 69.5621 40.0797 69.5489V69.9232H39.8816C39.8155 69.9232 39.7473 69.9232 39.6812 69.9232C39.459 69.9463 39.2363 69.8842 39.0582 69.7493C38.9199 69.5654 38.859 69.3346 38.8887 69.1064V66.621H38.2349V66.2467H38.8733V65.146H39.3136V66.2467H40.0731Z" fill="#606060"/>
<path d="M40.8083 66.8168C40.8796 66.6667 40.9852 66.5355 41.1165 66.4338C41.2537 66.3319 41.4092 66.2571 41.5744 66.2136C41.7643 66.165 41.9597 66.1414 42.1556 66.1432C42.3174 66.1433 42.4789 66.1587 42.6377 66.1894C42.795 66.2162 42.9449 66.2754 43.078 66.3633C43.2107 66.4539 43.3182 66.5766 43.3906 66.7199C43.4772 66.9073 43.5187 67.1124 43.5117 67.3187V69.2626C43.5059 69.2986 43.5086 69.3355 43.5196 69.3703C43.5305 69.4051 43.5495 69.4368 43.575 69.463C43.6005 69.4891 43.6317 69.5089 43.6662 69.5207C43.7007 69.5326 43.7376 69.5362 43.7737 69.5312C43.8222 69.5321 43.8703 69.5224 43.9146 69.5026V69.879L43.7759 69.8989C43.7253 69.9017 43.6746 69.9017 43.624 69.8989C43.5308 69.9024 43.4379 69.8867 43.351 69.8526C43.2865 69.825 43.2314 69.7791 43.1925 69.7205C43.1526 69.6595 43.1271 69.5903 43.1177 69.518C43.1057 69.4327 43.0998 69.3466 43.1001 69.2604H43.078C43.003 69.3708 42.9207 69.476 42.8315 69.5752C42.752 69.6658 42.6592 69.7437 42.5563 69.8064C42.448 69.8704 42.3308 69.9179 42.2085 69.9473C42.0563 69.9833 41.9003 70.0003 41.7439 69.9979C41.5827 69.9982 41.4221 69.9775 41.2662 69.9363C41.1243 69.9005 40.9916 69.8353 40.8766 69.7448C40.7644 69.656 40.6747 69.5421 40.6146 69.4123C40.5478 69.2622 40.5154 69.0989 40.5199 68.9346C40.5065 68.7215 40.5663 68.5102 40.6894 68.3358C40.804 68.1883 40.9561 68.0743 41.1297 68.0056C41.3329 67.9265 41.5451 67.8733 41.7616 67.8471L42.4726 67.7568C42.5562 67.7499 42.6392 67.7381 42.7214 67.7216C42.7854 67.7117 42.8459 67.686 42.8975 67.6468C42.9469 67.6094 42.9849 67.5591 43.0076 67.5015C43.0369 67.425 43.0504 67.3433 43.0472 67.2615C43.0525 67.1333 43.0268 67.0057 42.9724 66.8895C42.9256 66.7958 42.855 66.7161 42.7676 66.6583C42.6738 66.6006 42.57 66.561 42.4616 66.5416C42.3387 66.5208 42.2142 66.5105 42.0896 66.5108C41.8427 66.4994 41.5989 66.5698 41.3961 66.7111C41.3016 66.7899 41.2268 66.8896 41.1775 67.0023C41.1282 67.1151 41.1058 67.2377 41.1121 67.3606H40.6718C40.6837 67.1725 40.73 66.9882 40.8083 66.8168ZM43.0406 67.9175C43.0227 67.9465 42.9989 67.9714 42.9709 67.9907C42.9429 68.0101 42.9111 68.0234 42.8777 68.0298C42.8055 68.0513 42.7319 68.0682 42.6576 68.0804C42.4682 68.1135 42.2723 68.1421 42.072 68.1685C41.8863 68.1922 41.703 68.2312 41.5238 68.2852C41.3737 68.3283 41.2348 68.4034 41.1165 68.5053C41.0611 68.5584 41.0179 68.6229 40.9902 68.6944C40.9624 68.7659 40.9507 68.8427 40.9558 68.9192C40.9536 69.0238 40.977 69.1274 41.0241 69.2208C41.0696 69.3051 41.1308 69.3798 41.2046 69.441C41.2817 69.5059 41.3707 69.5552 41.4666 69.5863C41.5645 69.6187 41.6671 69.6351 41.7704 69.6347C41.937 69.635 42.1027 69.609 42.2613 69.5576C42.4096 69.5103 42.5478 69.4357 42.6686 69.3375C42.7899 69.2335 42.8867 69.104 42.9521 68.9582C43.0176 68.8125 43.05 68.6541 43.0472 68.4943V67.9131L43.0406 67.9175Z" fill="#606060"/>
<path d="M44.8064 66.2467V67.1031H44.8218C44.9173 66.8193 45.1052 66.5757 45.3554 66.4113C45.6057 66.2469 45.9038 66.1711 46.2022 66.1961V66.6364C46.0143 66.6238 45.8259 66.6516 45.6496 66.7178C45.4895 66.7774 45.3437 66.87 45.2216 66.9894C45.0995 67.1089 45.0038 67.2526 44.9407 67.4113C44.8733 67.5815 44.8397 67.7632 44.8417 67.9462V69.8989H44.4014V66.2467H44.8064Z" fill="#606060"/>
<path d="M24.8657 6.13325C29.753 7.54879 38.8472 26.5474 40.5556 39.2741C41.7135 47.8906 42.429 46.8251 44.8925 45.6694C47.9745 44.2252 49.7907 40.7161 48.3752 34.4551C46.2221 24.9206 40.1153 10.917 33.8697 4.7155C30.7238 1.59162 25.9599 2.72538 24.8657 6.13325Z" fill="#606060"/>
<path d="M14.8644 34.4991C12.8831 33.0945 10.981 31.6658 9.24847 30.2568C8.53097 32.9999 8.00793 35.7903 7.68323 38.607C7.16589 43.5405 8.17416 44.9098 10.3404 45.5834C11.7009 46.0061 17.0703 43.9544 18.8293 40.2251C15.2761 41.088 14.3273 38.9042 14.8644 34.4991Z" fill="#606060"/>
<path d="M53.7465 13.6911C60.2981 21.4424 17.779 50.2838 9.89552 47.8336C7.617 47.1247 7.07985 43.9612 7.69405 38.6073C7.69405 42.8649 10.2169 42.8737 17.1604 40.4301C24.1038 37.9865 41.6495 26.2262 43.7056 15.7428C44.0975 13.7461 42.9395 12.6828 41.9819 11.723C41.5416 11.2717 41.7045 10.4439 42.3429 10.4637C47.1641 10.5936 51.9611 11.5777 53.7465 13.6911Z" fill="#606060"/>
<path d="M48.3749 34.4554C49.5703 43.2062 29.1583 36.626 21.1362 31.9435C12.7376 27.043 3.77544 20.6258 4.41826 17.2817C2.39292 21.0771 3.33954 25.8917 7.52893 28.8218C18.9986 38.6822 39.6967 50.3962 46.4178 47.2547C49.4624 45.8281 49.731 40.1065 48.3749 34.4554Z" fill="#606060"/>
<path d="M7.52905 28.8214C1.40458 24.8587 -1.00603 19.8702 0.380896 16.7133C3.43873 9.75007 20.4142 13.2636 27.3246 16.2092C28.6455 16.7727 30.0919 17.8515 30.2196 18.7519C30.3472 19.6523 29.427 19.1261 27.6505 18.5053C24.4429 17.3804 14.6178 14.5052 8.58356 17.8933C3.6963 20.6341 4.24667 25.812 7.52905 28.8214Z" fill="#606060"/>
<path d="M16.0003 28.7864C16.478 26.8777 17.0658 24.7709 17.7263 22.4902C21.198 10.5318 27.5008 0.915838 33.8674 4.71557C30.7215 1.59169 28.5134 -0.629593 24.8106 0.162935C20.0224 1.18882 14.2435 14.0498 10.7212 25.0923C12.3261 26.3097 14.1247 27.5668 16.0003 28.7864Z" fill="#606060"/>
</g>
<defs>
<clipPath id="clip0_136_2836">
<rect width="54.4312" height="70" fill="white"/>
</clipPath>
</defs>
</svg>
