<svg width="70" height="85" viewBox="0 0 70 85" fill="none" xmlns="http://www.w3.org/2000/svg">
<g clip-path="url(#clip0_136_2911)">
<path d="M7.08363 63.9155V65.9381H2.3029V68.1667H6.85598V70.1892H2.3029V74.2318H0V63.9275L7.08363 63.9155Z" fill="#606060"/>
<path d="M10.5059 74.2321V63.9277H12.8088V72.1904H17.2061V74.2417L10.5059 74.2321Z" fill="#606060"/>
<path d="M28.7608 72.8087C27.7178 73.7892 26.3402 74.335 24.9087 74.335C23.4772 74.335 22.0996 73.7892 21.0566 72.8087C20.0544 71.7976 19.4922 70.4316 19.4922 69.0081C19.4922 67.5845 20.0544 66.2185 21.0566 65.2074C22.0996 64.227 23.4772 63.6812 24.9087 63.6812C26.3402 63.6812 27.7178 64.227 28.7608 65.2074C29.7618 66.2191 30.3233 67.5849 30.3233 69.0081C30.3233 70.4313 29.7618 71.797 28.7608 72.8087ZM27.9772 69.0153C27.9964 68.1463 27.6796 67.3034 27.093 66.662C26.8194 66.3551 26.484 66.1095 26.1088 65.9413C25.7336 65.7731 25.3271 65.6862 24.9159 65.6862C24.5047 65.6862 24.0982 65.7731 23.723 65.9413C23.3478 66.1095 23.0124 66.3551 22.7388 66.662C22.1687 67.312 21.8544 68.1471 21.8544 69.0117C21.8544 69.8762 22.1687 70.7113 22.7388 71.3613C23.0142 71.6652 23.3502 71.9081 23.7252 72.0744C24.1001 72.2406 24.5057 72.3265 24.9159 72.3265C25.326 72.3265 25.7317 72.2406 26.1066 72.0744C26.4816 71.9081 26.8176 71.6652 27.093 71.3613C27.6798 70.7229 27.9967 69.8822 27.9772 69.0153Z" fill="#606060"/>
<path d="M36.5614 69.8489L38.3922 63.9155H40.7886L42.6026 69.8489L44.6539 63.9155H47.1485L43.554 74.2199H41.843L39.5856 67.0476L37.3426 74.2199H35.6292L32.0347 63.9155H34.5341L36.5614 69.8489Z" fill="#606060"/>
<path d="M57.2993 63.9155V65.9596H52.1591V68.0852H56.7793V70.0478H52.1591V72.1901H57.4575V74.2271H49.8706V63.9227L57.2993 63.9155Z" fill="#606060"/>
<path d="M69.3506 67.3402C69.3506 68.9936 68.6964 70.0608 67.388 70.5417L70 74.2321H67.1675L64.879 70.9419H63.2902V74.2321H60.9897V63.9277H64.8982C66.4958 63.9277 67.6396 64.1985 68.3298 64.7401C69.0199 65.2817 69.3602 66.1484 69.3506 67.3402ZM66.5757 68.5647C66.86 68.3075 67.003 67.9017 67.0046 67.3473C67.0062 66.793 66.8584 66.4104 66.5613 66.1995C66.2657 65.9934 65.7497 65.8904 65.0132 65.8904H63.2902V68.9433H64.9677C65.7561 68.9481 66.2905 68.8211 66.5757 68.5647Z" fill="#606060"/>
<path d="M11.2197 83.101V77.7979H11.7685V83.101H11.2197Z" fill="#606060"/>
<path d="M16.4389 83.1007H15.8806V82.2547C15.6409 82.8419 15.1305 83.1198 14.4428 83.127C13.5633 83.127 13.0337 82.5687 13.0337 81.6628V79.3384H13.592V81.5119C13.5769 81.6531 13.5933 81.796 13.6401 81.9301C13.6869 82.0643 13.7629 82.1863 13.8627 82.2874C13.9624 82.3886 14.0834 82.4663 14.2169 82.5149C14.3504 82.5636 14.493 82.5819 14.6345 82.5687C15.4133 82.5567 15.871 81.9911 15.871 81.1908V79.3384H16.4293L16.4389 83.1007Z" fill="#606060"/>
<path d="M20.0193 79.334H20.6352L19.3771 81.1648L20.7286 83.1011H20.0768L19.0057 81.565L17.8961 83.1011H17.2803L18.6534 81.1648L17.3737 79.334H17.9992L19.0009 80.7718L20.0193 79.334Z" fill="#606060"/>
<path d="M24.8457 83.1007H24.2873V82.2547C24.0477 82.8419 23.5372 83.1198 22.8495 83.127C21.97 83.127 21.4404 82.5687 21.4404 81.6628V79.3384H21.9988V81.5119C21.9836 81.6531 22 81.796 22.0468 81.9301C22.0936 82.0643 22.1697 82.1863 22.2694 82.2874C22.3692 82.3886 22.4902 82.4663 22.6237 82.5149C22.7571 82.5636 22.8998 82.5819 23.0412 82.5687C23.82 82.5567 24.2777 81.9911 24.2777 81.1908V79.3384H24.8361L24.8457 83.1007Z" fill="#606060"/>
<path d="M26.7601 80.17C26.8717 79.9067 27.0608 79.6837 27.3022 79.5305C27.5436 79.3772 27.8259 79.3011 28.1116 79.3121V79.8776C27.9415 79.8639 27.7703 79.8851 27.6087 79.9399C27.447 79.9948 27.2983 80.0821 27.1717 80.1966C27.0451 80.3111 26.9433 80.4503 26.8725 80.6056C26.8017 80.7609 26.7634 80.9291 26.7601 81.0998V83.1007H26.2041V79.3336H26.7601V80.17Z" fill="#606060"/>
<path d="M30.2637 83.6378C30.024 84.2178 29.6358 84.5173 29.135 84.5173C28.8457 84.5235 28.564 84.4247 28.3418 84.2393L28.5814 83.7744C28.7347 83.8881 28.9202 83.9502 29.111 83.9518C29.2658 83.9457 29.4149 83.8917 29.5377 83.7973C29.6604 83.7028 29.7508 83.5726 29.7964 83.4246L29.9545 83.0723L28.3969 79.334H28.9816L30.2325 82.4492L31.4307 79.334H32.0034L30.2637 83.6378Z" fill="#606060"/>
<path d="M36.8131 79.6548L36.5974 80.0981C36.2912 79.9052 35.9384 79.7992 35.5766 79.7913C35.1548 79.7913 34.8313 79.9423 34.8313 80.2922C34.8313 81.1285 36.9329 80.6996 36.9329 82.0511C36.9329 82.794 36.2763 83.1223 35.555 83.1223C35.0264 83.1313 34.5136 82.9424 34.1172 82.5927L34.3329 82.1709C34.6777 82.4774 35.1224 82.6478 35.5838 82.6502C36.0271 82.6502 36.3841 82.4873 36.3913 82.1158C36.4129 81.2076 34.3041 81.6725 34.3113 80.3353C34.3113 79.6164 34.9319 79.3121 35.6197 79.3121C36.0422 79.3088 36.4567 79.4278 36.8131 79.6548Z" fill="#606060"/>
<path d="M39.0269 83.6378C38.7872 84.2178 38.399 84.5173 37.8982 84.5173C37.6089 84.5235 37.3271 84.4247 37.105 84.2393L37.3446 83.7744C37.4981 83.8878 37.6834 83.9499 37.8742 83.9518C38.0292 83.9455 38.1785 83.8915 38.3016 83.7971C38.4247 83.7027 38.5157 83.5726 38.562 83.4246L38.7177 83.0723L37.1601 79.334H37.7448L38.9981 82.4492L40.1963 79.334H40.7642L39.0269 83.6378Z" fill="#606060"/>
<path d="M47.6996 80.7787V83.1008H47.1412V80.9273C47.1412 80.2563 46.7482 79.8633 46.0988 79.8633C45.32 79.8848 44.8695 80.4432 44.8695 81.2508V83.1008H44.3039V80.9273C44.3039 80.2563 43.9181 79.8633 43.2591 79.8633C42.4875 79.8848 42.0226 80.4432 42.0226 81.2508V83.1008H41.4834V79.3337H42.0322V80.1844C42.2838 79.5997 42.7918 79.3193 43.47 79.3121C44.1482 79.3049 44.6682 79.6764 44.8215 80.2994C45.0612 79.6332 45.586 79.3193 46.3073 79.3121C47.1771 79.3121 47.6996 79.8705 47.6996 80.7787Z" fill="#606060"/>
<path d="M52.7896 81.2294C52.7896 82.3437 52.0707 83.1226 50.9947 83.1226C50.6973 83.1367 50.4019 83.0664 50.1428 82.9196C49.8836 82.7729 49.6714 82.5558 49.5305 82.2934V83.101H48.9722V77.7979H49.5305V80.1487C49.668 79.8861 49.8773 79.6681 50.134 79.52C50.3907 79.3719 50.6842 79.2999 50.9803 79.3124C52.0467 79.3124 52.7896 80.0984 52.7896 81.2294ZM52.224 81.2151C52.2137 80.9511 52.1259 80.696 51.9717 80.4815C51.8175 80.267 51.6036 80.1026 51.3566 80.0088C51.1097 79.915 50.8406 79.8959 50.5828 79.9538C50.3251 80.0118 50.0901 80.1443 49.9071 80.3348C49.7241 80.5253 49.6011 80.7654 49.5536 81.0253C49.506 81.2852 49.5359 81.5533 49.6396 81.7963C49.7432 82.0392 49.9161 82.2464 50.1366 82.3919C50.3571 82.5374 50.6155 82.6148 50.8797 82.6145C51.0617 82.6175 51.2424 82.5828 51.4105 82.5128C51.5786 82.4428 51.7305 82.3389 51.8566 82.2076C51.9828 82.0762 52.0805 81.9203 52.1437 81.7496C52.2069 81.5788 52.2343 81.3969 52.224 81.2151Z" fill="#606060"/>
<path d="M57.2081 81.2151C57.2123 81.5952 57.1036 81.9679 56.8955 82.286C56.6875 82.6041 56.3896 82.8532 56.0397 83.0016C55.6898 83.15 55.3037 83.191 54.9304 83.1195C54.5571 83.048 54.2135 82.8671 53.9432 82.5999C53.6729 82.3327 53.4882 81.9911 53.4125 81.6187C53.3367 81.2462 53.3734 80.8597 53.5179 80.5081C53.6623 80.1566 53.908 79.8559 54.2237 79.6442C54.5394 79.4326 54.9109 79.3196 55.291 79.3196C55.5442 79.3071 55.7973 79.3474 56.0341 79.438C56.2709 79.5286 56.4862 79.6674 56.6665 79.8456C56.8468 80.0239 56.988 80.2377 57.0813 80.4734C57.1745 80.7092 57.2177 80.9618 57.2081 81.2151ZM53.9466 81.2151C53.9551 81.4804 54.0415 81.7374 54.1951 81.9539C54.3486 82.1704 54.5626 82.3369 54.8102 82.4326C55.0577 82.5283 55.328 82.549 55.5873 82.4921C55.8466 82.4352 56.0833 82.3032 56.2681 82.1125C56.4528 81.9219 56.5773 81.6811 56.626 81.4202C56.6748 81.1593 56.6456 80.8898 56.5422 80.6453C56.4387 80.4008 56.2656 80.1923 56.0444 80.0456C55.8232 79.8989 55.5636 79.8206 55.2982 79.8204C55.1148 79.8151 54.9323 79.848 54.7624 79.9172C54.5925 79.9864 54.4389 80.0903 54.3115 80.2222C54.184 80.3542 54.0856 80.5113 54.0223 80.6835C53.9591 80.8557 53.9325 81.0392 53.9442 81.2223L53.9466 81.2151Z" fill="#606060"/>
<path d="M58.2217 83.101V77.7979H58.78V83.101H58.2217Z" fill="#606060"/>
<path d="M61.0806 11.438C57.2129 13.0747 53.9227 14.352 50.5366 16.4416C50.4432 17.992 50.4048 19.3172 50.3976 20.4723C51.8558 19.4383 53.3871 18.5117 54.9795 17.6997C53.4314 22.224 53.5584 27.4097 53.6831 32.466C53.8173 37.9777 53.8867 40.9252 52.0631 44.9918C48.2793 53.4413 41.083 55.507 39.6284 56.178C52.3123 55.1715 57.7569 48.1861 56.9469 31.299C56.3838 19.6719 58.09 15.9791 61.0806 11.438Z" fill="#606060"/>
<path d="M47.9322 14.7232C48.4857 8.87371 49.4898 7.38318 51.1026 3.64965C48.2102 5.08747 44.491 6.69303 40.9588 9.8011C39.1903 7.96309 35.567 3.79583 34.999 0C34.4335 3.79583 30.8078 7.96309 29.0417 9.8011C25.5071 6.68584 21.7879 5.08986 18.8979 3.64965C20.7647 7.97508 21.8191 9.29307 22.3007 17.8672C22.3007 18.047 22.3223 18.2075 22.3295 18.392C17.8603 15.0371 13.8584 13.5322 8.92188 11.4426C11.9125 15.9957 13.6187 19.6765 13.0628 31.3036C12.248 48.186 17.6949 55.1761 30.3789 56.1778C28.9243 55.5068 21.728 53.4412 17.9442 44.9916C16.1205 40.9178 16.19 37.9847 16.3242 32.4659C16.4488 27.4095 16.5639 22.2238 15.0254 17.6995C17.7103 19.0462 20.2076 20.738 22.4541 22.7318C22.4774 24.8557 22.3902 26.9794 22.1929 29.0942C20.9947 42.89 24.5509 46.2569 30.5945 49.6358C34.618 41.2221 34.249 33.7743 30.0314 26.7793C29.5324 25.9583 28.9884 25.1654 28.4019 24.4045C28.4268 26.2818 28.2986 28.158 28.0184 30.0144C31.3446 36.844 30.779 44.3134 29.7606 47.2897C24.225 43.0266 25.1141 35.2792 25.4472 29.3817C25.5598 27.3329 25.7635 22.7103 25.567 17.7953C25.45 15.386 25.1924 12.9856 24.7953 10.6063C31.057 15.1114 32.8639 20.3019 35.0086 25.6602C37.0264 20.6278 38.8068 15.2145 45.2099 10.6063C44.6348 13.8198 44.3736 17.7954 44.3065 21.3132C42.6423 22.9548 41.187 24.7955 39.9739 26.7937C35.7563 33.7886 35.3872 41.2365 39.4083 49.6501C45.4543 46.2713 49.0081 42.9044 47.8124 29.1086C47.3714 24.0067 47.5895 18.313 47.9322 14.7232ZM36.4033 15.0156C35.948 15.6985 35.0254 17.2634 34.999 17.3065C34.9751 17.2634 34.098 15.7728 33.6667 15.121C32.9483 14.0344 32.1523 13.0013 31.2847 12.0297C32.6389 10.4706 33.8802 8.81696 34.999 7.08124C36.2092 8.8162 37.4577 10.6231 38.6894 12.0561C37.8604 12.989 37.0965 13.9778 36.4033 15.0156ZM40.2375 47.2777C39.0225 43.7287 38.4354 33.791 44.3376 26.1682C44.388 27.4527 44.4455 28.1045 44.5533 29.3698C45.0422 34.9724 45.7755 43.0146 40.2399 47.2682L40.2375 47.2777Z" fill="#606060"/>
</g>
<defs>
<clipPath id="clip0_136_2911">
<rect width="70" height="84.5171" fill="white"/>
</clipPath>
</defs>
</svg>
