<svg width="15" height="15" viewBox="0 0 15 15" fill="none" xmlns="http://www.w3.org/2000/svg">
<path d="M11.84 9.2947C11.5331 8.97505 11.1628 8.80415 10.7703 8.80415C10.3811 8.80415 10.0076 8.97188 9.68795 9.29153L8.68786 10.2885C8.60557 10.2441 8.52329 10.203 8.44417 10.1619C8.33023 10.1049 8.22263 10.0511 8.13085 9.99413C7.19405 9.39914 6.34271 8.62375 5.52618 7.62049C5.13058 7.12045 4.86473 6.69952 4.67167 6.27227C4.93119 6.03491 5.17172 5.78805 5.40592 5.55069C5.49453 5.46207 5.58315 5.37029 5.67176 5.28167C6.33638 4.61706 6.33638 3.75622 5.67176 3.0916L4.80776 2.2276C4.70965 2.12949 4.60838 2.02821 4.51343 1.92694C4.32354 1.73072 4.12416 1.52817 3.91844 1.33828C3.61145 1.03445 3.24433 0.873047 2.85822 0.873047C2.47211 0.873047 2.09865 1.03445 1.78217 1.33828C1.77901 1.34144 1.77901 1.34144 1.77584 1.34461L0.699794 2.43015C0.294694 2.83525 0.0636604 3.32897 0.0130229 3.9018C-0.0629334 4.82594 0.209243 5.68677 0.418123 6.25012C0.930828 7.63315 1.69672 8.91492 2.83923 10.2885C4.22543 11.9437 5.8933 13.2508 7.79854 14.1717C8.52645 14.5167 9.49806 14.925 10.5836 14.9946C10.6501 14.9977 10.7197 15.0009 10.783 15.0009C11.5141 15.0009 12.128 14.7382 12.6091 14.216C12.6123 14.2097 12.6186 14.2065 12.6218 14.2002C12.7863 14.0008 12.9762 13.8204 13.1756 13.6274C13.3117 13.4976 13.4509 13.3615 13.587 13.2191C13.9004 12.8931 14.0649 12.5133 14.0649 12.1241C14.0649 11.7316 13.8972 11.355 13.5775 11.0385L11.84 9.2947ZM12.9731 12.6273C12.9699 12.6273 12.9699 12.6304 12.9731 12.6273C12.8496 12.7602 12.723 12.8805 12.5869 13.0134C12.3812 13.2096 12.1724 13.4153 11.9761 13.6464C11.6565 13.9882 11.2799 14.1496 10.7862 14.1496C10.7387 14.1496 10.688 14.1496 10.6406 14.1464C9.70061 14.0863 8.82711 13.7191 8.17199 13.4058C6.38069 12.5387 4.80776 11.3075 3.50068 9.74727C2.42147 8.44652 1.69988 7.24388 1.22199 5.95262C0.927663 5.16458 0.820058 4.5506 0.867531 3.97143C0.899179 3.60114 1.0416 3.29415 1.30428 3.03147L2.38349 1.95226C2.53857 1.80668 2.70314 1.72755 2.86455 1.72755C3.06393 1.72755 3.22534 1.84782 3.32661 1.94909C3.32978 1.95226 3.33294 1.95542 3.33611 1.95859C3.52916 2.13898 3.71273 2.32571 3.90578 2.5251C4.00389 2.62637 4.10517 2.72765 4.20644 2.83209L5.07044 3.69609C5.40592 4.03156 5.40592 4.34172 5.07044 4.67719C4.97866 4.76897 4.89005 4.86075 4.79827 4.94937C4.53242 5.22154 4.27923 5.47473 4.00389 5.72159C3.99756 5.72792 3.99123 5.73108 3.98807 5.73741C3.71589 6.00959 3.76653 6.27543 3.82349 6.45583C3.82666 6.46533 3.82982 6.47482 3.83299 6.48431C4.05769 7.02867 4.37418 7.54137 4.85523 8.15219L4.8584 8.15535C5.7319 9.2314 6.65287 10.0701 7.66878 10.7125C7.79854 10.7948 7.93146 10.8613 8.05806 10.9246C8.17199 10.9816 8.27959 11.0354 8.37138 11.0923C8.38403 11.0987 8.39669 11.1082 8.40935 11.1145C8.51696 11.1683 8.61823 11.1936 8.72267 11.1936C8.98536 11.1936 9.14993 11.029 9.20373 10.9752L10.2861 9.89285C10.3937 9.78525 10.5646 9.65549 10.764 9.65549C10.9602 9.65549 11.1216 9.77892 11.2197 9.88652C11.2229 9.88969 11.2229 9.88969 11.2261 9.89285L12.9699 11.6367C13.2959 11.9595 13.2959 12.2918 12.9731 12.6273Z" fill="#FF6B00"/>
<path d="M8.09192 3.56437C8.92111 3.70362 9.67434 4.09606 10.2757 4.69738C10.877 5.2987 11.2663 6.05193 11.4087 6.88112C11.4435 7.09 11.6239 7.23558 11.8296 7.23558C11.8549 7.23558 11.8771 7.23242 11.9024 7.22925C12.1366 7.19128 12.2917 6.96974 12.2537 6.73554C12.0828 5.73228 11.6081 4.81764 10.8833 4.09289C10.1586 3.36815 9.24392 2.89342 8.24067 2.72252C8.00647 2.68454 7.78809 2.83962 7.74695 3.07065C7.70581 3.30168 7.85772 3.52639 8.09192 3.56437Z" fill="#FF6B00"/>
<path d="M14.9668 6.61471C14.6851 4.96266 13.9065 3.45936 12.7102 2.26305C11.5139 1.06674 10.0106 0.288185 8.35857 0.00651372C8.12754 -0.0346292 7.90916 0.123613 7.86802 0.354647C7.83004 0.588845 7.98512 0.807219 8.21932 0.848362C9.69414 1.09838 11.0392 1.79782 12.1089 2.86437C13.1786 3.93408 13.8749 5.27914 14.1249 6.75396C14.1597 6.96284 14.3401 7.10842 14.5458 7.10842C14.5712 7.10842 14.5933 7.10526 14.6186 7.10209C14.8497 7.06728 15.0079 6.84574 14.9668 6.61471Z" fill="#FF6B00"/>
</svg>
