<svg width="13" height="15" viewBox="0 0 13 15" fill="none" xmlns="http://www.w3.org/2000/svg">
<path fill-rule="evenodd" clip-rule="evenodd" d="M6.10428 0C3.50686 0 1.39502 2.13068 1.39502 4.7588C1.39502 5.64902 1.78711 6.75343 2.3578 7.85505C3.6143 10.2808 5.70731 12.7241 5.70731 12.7241C5.80638 12.8399 5.95149 12.9069 6.10428 12.9069C6.25707 12.9069 6.40218 12.8399 6.50125 12.7241C6.50125 12.7241 8.59426 10.2808 9.85076 7.85505C10.4215 6.75343 10.8135 5.64902 10.8135 4.7588C10.8135 2.13068 8.7017 0 6.10428 0ZM6.10428 1.0465C8.12752 1.0465 9.76704 2.71184 9.76704 4.7588C9.76704 5.78158 9.11821 7.11412 8.36891 8.35667C7.5652 9.68922 6.62474 10.9129 6.10428 11.5604C5.58382 10.9129 4.64336 9.68922 3.83965 8.35667C3.09035 7.11412 2.44152 5.78158 2.44152 4.7588C2.44152 2.71184 4.08104 1.0465 6.10428 1.0465Z" fill="#FF6B00"/>
<path fill-rule="evenodd" clip-rule="evenodd" d="M6.10462 2.79004C5.04556 2.79004 4.18604 3.64957 4.18604 4.70863C4.18604 5.76769 5.04556 6.62721 6.10462 6.62721C7.16368 6.62721 8.02321 5.76769 8.02321 4.70863C8.02321 3.64957 7.16368 2.79004 6.10462 2.79004ZM6.10462 3.83654C6.58601 3.83654 6.97671 4.22724 6.97671 4.70863C6.97671 5.19002 6.58601 5.58071 6.10462 5.58071C5.62323 5.58071 5.23254 5.19002 5.23254 4.70863C5.23254 4.22724 5.62323 3.83654 6.10462 3.83654Z" fill="#FF6B00"/>
<path fill-rule="evenodd" clip-rule="evenodd" d="M9.44224 11.2513C10.0094 11.4215 10.4769 11.6322 10.7999 11.8792C11.0092 12.0383 11.1627 12.1939 11.1627 12.3836C11.1627 12.4953 11.0992 12.5964 11.0099 12.6976C10.862 12.8643 10.6422 13.0143 10.3701 13.1539C9.40875 13.6457 7.85435 13.9534 6.1046 13.9534C4.35485 13.9534 2.80044 13.6457 1.83905 13.1539C1.56696 13.0143 1.3472 12.8643 1.19929 12.6976C1.10999 12.5964 1.0465 12.4953 1.0465 12.3836C1.0465 12.1939 1.19999 12.0383 1.40929 11.8792C1.73231 11.6322 2.19975 11.4215 2.76695 11.2513C3.04323 11.1683 3.2002 10.876 3.11718 10.5997C3.03416 10.3227 2.74184 10.1657 2.46556 10.2488C1.60185 10.509 0.930689 10.8655 0.527437 11.2597C0.173022 11.605 0 11.9915 0 12.3836C0 12.8734 0.276974 13.3618 0.839993 13.7692C1.82789 14.4836 3.81206 14.9999 6.1046 14.9999C8.39713 14.9999 10.3813 14.4836 11.3692 13.7692C11.9322 13.3618 12.2092 12.8734 12.2092 12.3836C12.2092 11.9915 12.0362 11.605 11.6818 11.2597C11.2785 10.8655 10.6073 10.509 9.74363 10.2488C9.46736 10.1657 9.17503 10.3227 9.09201 10.5997C9.00899 10.876 9.16597 11.1683 9.44224 11.2513Z" fill="#FF6B00"/>
</svg>
