<svg width="113" height="114" viewBox="0 0 113 114" fill="none" xmlns="http://www.w3.org/2000/svg">
<g opacity="0.3" clip-path="url(#clip0_136_1952)">
<path d="M58.6256 110.794C58.5113 109.834 58.7817 108.868 59.3776 108.107C59.9734 107.346 60.8459 106.854 61.8038 106.737C62.2798 106.68 62.7622 106.718 63.2235 106.849C63.6847 106.979 64.1157 107.2 64.4918 107.498C64.8679 107.795 65.1817 108.165 65.4152 108.584C65.6487 109.004 65.7973 109.465 65.8526 109.942C65.9614 110.902 65.6889 111.865 65.094 112.625C64.4992 113.384 63.6299 113.878 62.6743 114H62.2087C61.3252 113.992 60.4747 113.662 59.8156 113.073C59.1564 112.483 58.7335 111.673 58.6256 110.794ZM35.4871 110.794C34.5991 110.429 33.8896 109.729 33.511 108.845C33.1325 107.961 33.1151 106.964 33.4627 106.067C33.6314 105.618 33.8867 105.207 34.214 104.857C34.5414 104.507 34.9344 104.225 35.3705 104.027C35.8067 103.829 36.2775 103.719 36.756 103.704C37.2345 103.688 37.7113 103.768 38.1593 103.937C38.6099 104.106 39.0228 104.363 39.3745 104.692C39.7262 105.021 40.0098 105.416 40.2091 105.855C40.4083 106.294 40.5194 106.768 40.5358 107.25C40.5523 107.732 40.4739 108.213 40.3051 108.664C40.0375 109.358 39.5684 109.955 38.9584 110.378C38.3485 110.801 37.6258 111.031 36.8839 111.038C36.3947 111.026 35.9128 110.915 35.4668 110.713L35.4871 110.794ZM83.2013 103.389C82.6529 102.586 82.4431 101.598 82.6175 100.641C82.7919 99.6835 83.3364 98.8337 84.1326 98.2765C84.9308 97.728 85.9131 97.5183 86.8652 97.6931C87.8172 97.868 88.6615 98.4132 89.2137 99.2098C89.7642 100.011 89.9772 100.997 89.8067 101.954C89.6361 102.911 89.0957 103.762 88.3027 104.322C87.7027 104.726 87.0008 104.951 86.2784 104.972C85.6671 104.977 85.0644 104.827 84.5264 104.536C83.9884 104.246 83.5326 103.823 83.2013 103.308V103.389ZM12.9357 95.2739C12.5839 94.9142 12.3102 94.4855 12.1318 94.0147C11.9533 93.5439 11.874 93.0411 11.8987 92.5381C11.9234 92.0351 12.0516 91.5427 12.2754 91.0917C12.4991 90.6408 12.8135 90.2411 13.1988 89.9178C13.9302 89.2778 14.8829 88.9511 15.8521 89.008C16.8213 89.065 17.7295 89.5009 18.3812 90.2221C19.0236 90.9494 19.3523 91.9021 19.2954 92.8717C19.2385 93.8413 18.8006 94.7488 18.0776 95.3956C17.411 95.9974 16.5454 96.3299 15.6483 96.3289C15.1373 96.3335 14.6312 96.2292 14.1635 96.0228C13.6958 95.8165 13.2773 95.5128 12.9357 95.1319V95.2739ZM101.502 85.3732C101.076 85.1471 100.699 84.839 100.392 84.4667C100.085 84.0944 99.8549 83.6651 99.7139 83.2035C99.5728 82.7418 99.524 82.2567 99.5703 81.7761C99.6165 81.2955 99.7569 80.8287 99.9833 80.4025C100.435 79.5477 101.207 78.9074 102.129 78.6221C103.051 78.3368 104.049 78.4299 104.903 78.8809C105.329 79.1013 105.707 79.4042 106.015 79.7721C106.323 80.1399 106.556 80.5654 106.699 81.024C106.842 81.4825 106.893 81.965 106.849 82.4434C106.804 82.9218 106.666 83.3866 106.441 83.811C106.141 84.4164 105.68 84.9266 105.108 85.2848C104.536 85.643 103.876 85.8351 103.202 85.8398C102.594 85.7814 102.009 85.5723 101.502 85.2312V85.3732ZM0.141694 70.8468C-0.0785935 69.9029 0.0802681 68.9101 0.583991 68.0826C1.08771 67.2552 1.8959 66.6594 2.8341 66.4239C3.29935 66.3088 3.78268 66.2867 4.25643 66.3591C4.73018 66.4314 5.18505 66.5967 5.59498 66.8454C6.0049 67.0942 6.36184 67.4216 6.64536 67.8088C6.92888 68.196 7.1334 68.6354 7.24722 69.102C7.47366 70.0434 7.31992 71.0362 6.81946 71.8646C6.319 72.6929 5.51235 73.2897 4.57506 73.5248C4.28518 73.6065 3.98542 73.6474 3.68433 73.6466C2.86864 73.6359 2.07927 73.3557 1.43871 72.8495C0.798147 72.3432 0.342222 71.6392 0.141694 70.8468ZM105.672 57.0304V56.929C105.669 56.4477 105.761 55.9706 105.943 55.5252C106.125 55.0798 106.393 54.6748 106.732 54.3336C107.07 53.9923 107.473 53.7215 107.917 53.5367C108.36 53.3519 108.835 53.2568 109.316 53.2568C109.795 53.2514 110.27 53.3414 110.715 53.5215C111.159 53.7016 111.563 53.9683 111.904 54.306C112.245 54.6438 112.515 55.0459 112.7 55.4892C112.885 55.9325 112.98 56.4081 112.98 56.8884V57.0101V57.1318C112.982 57.6122 112.89 58.0883 112.708 58.5325C112.526 58.9768 112.257 59.3805 111.918 59.7201C111.58 60.0598 111.177 60.3287 110.733 60.5113C110.29 60.6938 109.815 60.7864 109.336 60.7837C108.847 60.7867 108.363 60.691 107.911 60.5023C107.46 60.3137 107.052 60.036 106.71 59.6858C106.368 59.3356 106.1 58.92 105.921 58.4639C105.743 58.0077 105.658 57.5202 105.672 57.0304ZM2.79361 47.8398C2.32628 47.728 1.88563 47.5246 1.49703 47.2414C1.10842 46.9582 0.779539 46.6008 0.529301 46.1898C0.279063 45.7787 0.112418 45.3221 0.0389481 44.8462C-0.0345219 44.3703 -0.013367 43.8846 0.101206 43.417C0.212802 42.9486 0.41572 42.507 0.698281 42.1175C0.980843 41.7281 1.33747 41.3984 1.74764 41.1477C2.1578 40.8969 2.6134 40.7298 3.08822 40.6562C3.56304 40.5826 4.04771 40.6038 4.51432 40.7186C5.44038 40.9669 6.23247 41.5691 6.72067 42.3959C7.20886 43.2228 7.35429 44.2084 7.12575 45.1414C6.93398 45.9424 6.47764 46.655 5.83084 47.1632C5.18404 47.6715 4.38478 47.9457 3.56287 47.9412C3.30381 47.9322 3.0462 47.8982 2.79361 47.8398ZM99.9631 33.638C99.7371 33.2133 99.5971 32.7481 99.5511 32.269C99.5051 31.7899 99.5541 31.3065 99.6952 30.8465C99.8363 30.3864 100.067 29.9589 100.373 29.5884C100.68 29.2179 101.056 28.9118 101.481 28.6877C101.905 28.4612 102.369 28.3208 102.847 28.2748C103.325 28.2287 103.808 28.2778 104.267 28.4192C104.726 28.5606 105.152 28.7915 105.522 29.0987C105.892 29.406 106.197 29.7834 106.421 30.2093C106.647 30.6339 106.787 31.0992 106.833 31.5783C106.879 32.0573 106.83 32.5408 106.689 33.0008C106.548 33.4609 106.317 33.8884 106.011 34.2589C105.704 34.6294 105.328 34.9355 104.903 35.1596C104.381 35.4446 103.796 35.5913 103.202 35.5857C102.518 35.5999 101.844 35.421 101.257 35.0694C100.67 34.7178 100.194 34.2077 99.8821 33.5974L99.9631 33.638ZM13.1988 24.2445C12.4758 23.5977 12.0379 22.6902 11.981 21.7206C11.9241 20.751 12.2528 19.7983 12.8952 19.071C13.5342 18.3448 14.4348 17.9026 15.3991 17.8417C16.3633 17.7809 17.3122 18.1063 18.0371 18.7464C18.7659 19.3875 19.2114 20.2921 19.2759 21.2619C19.3404 22.2316 19.0187 23.1875 18.3812 23.9199C18.0363 24.3103 17.6124 24.6225 17.1377 24.8359C16.663 25.0493 16.1483 25.1589 15.6281 25.1575C14.735 25.1566 13.8723 24.8324 13.1988 24.2445ZM84.0516 15.7234C83.6521 15.4545 83.3101 15.1085 83.0455 14.7057C82.7809 14.3028 82.599 13.8512 82.5104 13.3772C82.4218 12.9031 82.4283 12.4162 82.5296 11.9447C82.6309 11.4732 82.8248 11.0266 83.1001 10.631C83.3718 10.2345 83.7191 9.89557 84.1218 9.63388C84.5246 9.37218 84.975 9.19283 85.4472 9.10611C85.9193 9.01939 86.4039 9.02702 86.8731 9.12856C87.3423 9.2301 87.7869 9.42356 88.1813 9.6978C88.9794 10.2482 89.5275 11.0928 89.7058 12.0471C89.8841 13.0014 89.6781 13.9877 89.1327 14.7902C88.7953 15.2789 88.3445 15.6782 87.8191 15.9538C87.2937 16.2295 86.7094 16.3732 86.1164 16.3726C85.3776 16.376 84.6561 16.1491 84.0516 15.7234ZM33.2603 8.1356C32.9072 7.23937 32.9219 6.23961 33.301 5.35416C33.6802 4.46871 34.3932 3.76933 35.2847 3.40842C36.1793 3.06004 37.1747 3.07741 38.0567 3.4568C38.9388 3.83619 39.637 4.54731 40.0014 5.43725C40.3545 6.33347 40.3399 7.33324 39.9607 8.21869C39.5815 9.10414 38.8685 9.80351 37.9771 10.1644C37.5592 10.3332 37.1117 10.4159 36.6612 10.4079C35.919 10.4298 35.1877 10.224 34.5654 9.81786C33.9432 9.41175 33.4595 8.8248 33.1793 8.1356H33.2603ZM61.6014 7.30377C61.1242 7.251 60.6623 7.10372 60.2424 6.87052C59.8225 6.63731 59.453 6.32281 59.1555 5.94529C58.8579 5.56777 58.6381 5.13476 58.5089 4.67139C58.3797 4.20802 58.3437 3.72355 58.4029 3.24611C58.4581 2.76896 58.6068 2.30743 58.8403 1.88794C59.0738 1.46845 59.3875 1.09922 59.7636 0.801455C60.1397 0.503685 60.5707 0.283216 61.032 0.152647C61.4932 0.0220791 61.9757 -0.0160237 62.4516 0.0405502C62.9288 0.0933197 63.3907 0.240594 63.8106 0.4738C64.2305 0.707007 64.6 1.0215 64.8976 1.39903C65.1951 1.77655 65.4149 2.20956 65.5441 2.67293C65.6733 3.13629 65.7093 3.62077 65.6501 4.09821C65.5552 4.98961 65.1346 5.81433 64.4694 6.41362C63.8041 7.0129 62.9412 7.34441 62.0467 7.34435L61.6014 7.30377Z" fill="#FFAF00"/>
<path d="M58.0991 101.015C58.0483 100.625 58.0759 100.227 58.1803 99.8471C58.2846 99.467 58.4637 99.1115 58.7069 98.8017C58.9501 98.4918 59.2526 98.2336 59.5967 98.0424C59.9408 97.8512 60.3194 97.7308 60.7106 97.6882C61.4935 97.5962 62.2811 97.8173 62.9026 98.3034C63.5241 98.7895 63.9293 99.5015 64.0305 100.285C64.0786 100.677 64.0492 101.074 63.944 101.454C63.8388 101.835 63.6598 102.191 63.4172 102.501C63.1747 102.812 62.8734 103.072 62.5305 103.266C62.1876 103.461 61.81 103.585 61.4191 103.633H61.0547C60.3294 103.629 59.6301 103.362 59.0866 102.88C58.5431 102.399 58.1922 101.736 58.0991 101.015ZM39.1713 101.015C38.8037 100.878 38.4668 100.669 38.1801 100.401C37.8933 100.132 37.6624 99.8093 37.5006 99.4511C37.3388 99.0928 37.2493 98.706 37.2372 98.313C37.2252 97.9199 37.2908 97.5283 37.4304 97.1607C37.5653 96.7906 37.7725 96.4511 38.0399 96.1623C38.3073 95.8734 38.6296 95.641 38.9878 95.4785C39.346 95.316 39.7329 95.2268 40.1259 95.216C40.5189 95.2053 40.9102 95.2732 41.2767 95.4159C41.646 95.5511 41.9846 95.7588 42.2729 96.0268C42.5611 96.2948 42.793 96.6178 42.9552 96.9768C43.1173 97.3357 43.2063 97.7235 43.217 98.1174C43.2278 98.5113 43.16 98.9034 43.0176 99.2707C42.8032 99.8388 42.4208 100.328 41.9216 100.672C41.4223 101.017 40.8301 101.2 40.224 101.198C39.8619 101.177 39.5059 101.095 39.1713 100.955V101.015ZM78.201 94.929C77.7558 94.2743 77.5868 93.4697 77.7309 92.6906C77.875 91.9116 78.3205 91.2212 78.9703 90.7699C79.2917 90.5453 79.6542 90.3865 80.037 90.3027C80.4198 90.2189 80.8153 90.2116 81.2009 90.2813C81.5864 90.3511 81.9545 90.4965 82.2839 90.7091C82.6132 90.9218 82.8975 91.1975 83.1203 91.5206C83.5739 92.1743 83.7498 92.9819 83.6094 93.7657C83.4689 94.5495 83.0235 95.2453 82.3712 95.7C81.8676 96.0377 81.2767 96.2209 80.6708 96.2274C80.182 96.2199 79.7022 96.0944 79.2722 95.8612C78.8422 95.6281 78.4748 95.2944 78.201 94.8884V94.929ZM20.7091 88.2541C20.4484 87.9585 20.2484 87.6142 20.1205 87.2411C19.9927 86.8679 19.9394 86.4732 19.9639 86.0794C19.9883 85.6856 20.0899 85.3005 20.263 84.9461C20.436 84.5917 20.677 84.2749 20.9723 84.0139C21.5644 83.49 22.3391 83.2216 23.1276 83.2672C23.9162 83.3128 24.6548 83.6687 25.183 84.2573C25.4449 84.5517 25.6464 84.8949 25.7759 85.2673C25.9055 85.6398 25.9606 86.0341 25.938 86.4279C25.9154 86.8216 25.8157 87.2071 25.6445 87.5622C25.4732 87.9173 25.2339 88.2352 24.94 88.4976C24.3837 88.9968 23.6624 89.2716 22.9157 89.2685C22.4945 89.258 22.0803 89.1586 21.7001 88.9769C21.3199 88.7951 20.9822 88.535 20.7091 88.2136V88.2541ZM93.1814 80.1388C92.4817 79.7638 91.9576 79.1277 91.7227 78.3682C91.4878 77.6087 91.5609 76.787 91.9262 76.0811C92.1095 75.732 92.3597 75.4225 92.6624 75.1703C92.9652 74.9181 93.3145 74.7281 93.6905 74.6113C94.0665 74.4945 94.4618 74.4531 94.8538 74.4895C95.2458 74.5258 95.6267 74.6393 95.975 74.8233C96.3233 75.007 96.6322 75.2577 96.8838 75.5611C97.1354 75.8645 97.325 76.2146 97.4415 76.5914C97.5581 76.9683 97.5994 77.3644 97.5631 77.7573C97.5268 78.1501 97.4137 78.5319 97.2301 78.8809C96.9784 79.3686 96.598 79.7778 96.1305 80.0639C95.6629 80.3501 95.126 80.5023 94.5781 80.504C94.0874 80.4795 93.6091 80.3406 93.1814 80.0982V80.1388ZM10.1824 68.3919C10.0854 68.0108 10.0646 67.6143 10.1211 67.2252C10.1776 66.8361 10.3103 66.462 10.5116 66.1245C10.713 65.787 10.9789 65.4927 11.2941 65.2585C11.6094 65.0244 11.9677 64.8551 12.3485 64.7603C12.7313 64.6632 13.1296 64.6428 13.5203 64.7005C13.911 64.7582 14.2865 64.8927 14.6251 65.0964C14.9637 65.3 15.2589 65.5687 15.4935 65.8871C15.7282 66.2055 15.8977 66.5671 15.9924 66.9514C16.1753 67.7234 16.0459 68.5366 15.6324 69.2133C15.219 69.8899 14.5551 70.3751 13.7858 70.5627C13.5506 70.5926 13.3125 70.5926 13.0773 70.5627C12.4316 70.5528 11.8069 70.3312 11.2988 69.9319C10.7906 69.5325 10.427 68.9774 10.2634 68.3513L10.1824 68.3919ZM96.5013 57.071C96.5013 56.2728 96.8163 55.5069 97.3776 54.9406C97.9389 54.3743 98.7009 54.0534 99.4974 54.0481C99.8908 54.0481 100.28 54.1257 100.644 54.2766C101.007 54.4275 101.338 54.6487 101.616 54.9275C101.894 55.2063 102.115 55.5373 102.265 55.9016C102.416 56.2659 102.493 56.6564 102.493 57.0507C102.493 57.8471 102.178 58.6108 101.616 59.1739C101.054 59.737 100.292 60.0534 99.4974 60.0534C98.7133 60.0322 97.9689 59.7037 97.4239 59.1385C96.8789 58.5733 96.5767 57.8164 96.5823 57.0304L96.5013 57.071ZM12.3282 49.544C11.9456 49.4515 11.5851 49.2837 11.2676 49.0506C10.9502 48.8174 10.682 48.5234 10.4786 48.1857C10.2753 47.8479 10.1408 47.473 10.083 47.0828C10.0252 46.6926 10.0453 46.2948 10.1419 45.9124C10.3381 45.1436 10.828 44.483 11.506 44.0731C12.1839 43.6631 12.9955 43.5368 13.7655 43.7213C14.1498 43.8076 14.5134 43.969 14.8354 44.1963C15.1573 44.4235 15.4315 44.7122 15.6421 45.0457C15.8526 45.3792 15.9955 45.7511 16.0626 46.14C16.1297 46.5289 16.1195 46.9273 16.0328 47.3123C15.8736 47.9497 15.5101 48.5171 14.9982 48.9275C14.4862 49.3379 13.8541 49.5688 13.1987 49.5846C12.9331 49.5935 12.6675 49.5662 12.4092 49.5035L12.3282 49.544ZM91.7643 37.8985C91.5807 37.5496 91.4675 37.1677 91.4312 36.7749C91.395 36.382 91.4363 35.9859 91.5528 35.6091C91.6694 35.2322 91.8589 34.8821 92.1105 34.5787C92.3622 34.2753 92.671 34.0246 93.0194 33.8409C93.367 33.6541 93.7482 33.5385 94.1408 33.5008C94.5334 33.463 94.9296 33.5038 95.3064 33.6208C95.6831 33.7379 96.0329 33.9288 96.3353 34.1825C96.6377 34.4363 96.8868 34.7477 97.0681 35.0987C97.258 35.4453 97.3767 35.8265 97.4173 36.2197C97.4579 36.613 97.4195 37.0104 97.3044 37.3886C97.1893 37.7667 96.9999 38.118 96.7472 38.4216C96.4945 38.7252 96.1838 38.975 95.8333 39.1564C95.4053 39.3928 94.9251 39.5183 94.4364 39.5216C93.8953 39.5029 93.3692 39.3386 92.9132 39.0459C92.4573 38.7531 92.0884 38.3428 91.8453 37.858L91.7643 37.8985ZM20.7699 30.2498C20.4737 29.989 20.2322 29.6717 20.0594 29.3165C19.8866 28.9613 19.786 28.5752 19.7634 28.1806C19.7408 27.7861 19.7967 27.391 19.9277 27.0183C20.0588 26.6456 20.2625 26.3027 20.5269 26.0096C20.7856 25.7143 21.0999 25.4732 21.4518 25.3C21.8037 25.1269 22.1863 25.0252 22.5776 25.0007C22.9688 24.9762 23.3611 25.0294 23.7318 25.1572C24.1025 25.2851 24.4443 25.4852 24.7376 25.7458C25.0329 26.0068 25.2739 26.3236 25.4469 26.678C25.6199 27.0324 25.7216 27.4175 25.746 27.8113C25.7705 28.2051 25.7172 28.5999 25.5894 28.973C25.4615 29.3462 25.2615 29.6905 25.0008 29.9861C24.7186 30.3042 24.3726 30.559 23.9853 30.7338C23.5981 30.9086 23.1784 30.9995 22.7537 31.0005C22.0472 30.9654 21.3747 30.6858 20.8508 30.2093L20.7699 30.2498ZM78.7476 23.291C78.0964 22.8359 77.6505 22.142 77.5065 21.3596C77.3625 20.5772 77.532 19.7695 77.9784 19.1116C78.4235 18.4843 79.0934 18.0537 79.848 17.91C80.6026 17.7663 81.3834 17.9206 82.0271 18.3406C82.6802 18.7888 83.1298 19.4777 83.2777 20.257C83.4256 21.0362 83.2599 21.8425 82.8166 22.4997C82.5421 22.9019 82.1735 23.2305 81.7429 23.4569C81.3124 23.6832 80.8331 23.8004 80.3469 23.7982C79.8012 23.7542 79.2771 23.5651 78.8286 23.2504L78.7476 23.291ZM37.1874 17.0624C37.0474 16.6961 36.9808 16.3058 36.9915 15.9136C37.0022 15.5215 37.09 15.1354 37.2498 14.7773C37.4096 14.4192 37.6384 14.0963 37.923 13.8269C38.2075 13.5576 38.5423 13.3471 38.9081 13.2077C39.6491 12.9235 40.4723 12.9454 41.1972 13.2687C41.9221 13.592 42.4894 14.1902 42.7747 14.9322C43.0528 15.6751 43.0282 16.4979 42.7062 17.2229C42.3843 17.9479 41.7909 18.5169 41.054 18.8072C40.7092 18.9283 40.3464 18.99 39.9811 18.9898C39.3848 18.9698 38.8081 18.7717 38.3248 18.4211C37.8415 18.0705 37.4737 17.5833 37.2684 17.0219L37.1874 17.0624ZM60.4676 16.3929C59.6784 16.3013 58.9579 15.8994 58.4643 15.2754C57.9708 14.6515 57.7448 13.8566 57.836 13.0656C57.8811 12.6747 58.003 12.2967 58.1946 11.9532C58.3861 11.6097 58.6437 11.3076 58.9523 11.0644C59.2609 10.8211 59.6145 10.6414 59.9927 10.5357C60.3709 10.43 60.7662 10.4003 61.1559 10.4485C61.5448 10.4864 61.9224 10.6013 62.2667 10.7865C62.611 10.9716 62.9153 11.2234 63.1619 11.5271C63.4085 11.8309 63.5926 12.1807 63.7035 12.5562C63.8144 12.9317 63.8498 13.3255 63.8078 13.7149C63.7238 14.4431 63.3769 15.1154 62.8325 15.605C62.288 16.0945 61.5837 16.3676 60.8523 16.3726H60.5081L60.4676 16.3929Z" fill="#FFAF00"/>
<path d="M57.735 92.6567C57.6529 92.0263 57.818 91.3886 58.1955 90.8778C58.5731 90.3669 59.1337 90.0228 59.7593 89.9178C60.398 89.8434 61.0401 90.0259 61.5448 90.4252C62.0495 90.8246 62.3756 91.4081 62.4517 92.048C62.5278 92.6728 62.3594 93.3029 61.982 93.806C61.6046 94.3091 61.0474 94.6461 60.4274 94.7464H60.144C59.5597 94.7432 58.9959 94.5309 58.5541 94.1477C58.1124 93.7645 57.8219 93.2357 57.735 92.6567ZM42.4105 92.6567C42.1136 92.5442 41.8417 92.374 41.6106 92.1558C41.3796 91.9377 41.1938 91.6759 41.064 91.3855C40.9341 91.0952 40.8629 90.782 40.8543 90.4639C40.8456 90.1459 40.8998 89.8293 41.0137 89.5323C41.2409 88.931 41.6962 88.4441 42.2803 88.178C42.8644 87.912 43.5298 87.8882 44.1312 88.1121C44.7279 88.3441 45.2102 88.801 45.4751 89.3849C45.7399 89.9689 45.7662 90.6334 45.5483 91.2365C45.3731 91.6983 45.063 92.0964 44.6585 92.3787C44.254 92.6611 43.7739 92.8145 43.281 92.819C42.947 92.8158 42.6168 92.7468 42.3093 92.6161L42.4105 92.6567ZM73.9299 87.7064C73.5622 87.1763 73.4197 86.5216 73.5335 85.8863C73.6474 85.2509 74.0084 84.6869 74.5372 84.3182C75.0646 83.9561 75.7131 83.817 76.3421 83.9309C76.9712 84.0449 77.5301 84.4027 77.8976 84.9269C78.2653 85.4569 78.4078 86.1116 78.2939 86.7469C78.1801 87.3823 77.8191 87.9463 77.2903 88.315C76.8845 88.5921 76.4049 88.7406 75.9138 88.7411C75.5236 88.7457 75.1384 88.6537 74.7923 88.4732C74.4462 88.2927 74.1499 88.0293 73.9299 87.7064ZM27.3695 82.2894C26.9417 81.8097 26.7207 81.1798 26.7548 80.5374C26.7889 79.8949 27.0754 79.292 27.5517 78.8606C28.0329 78.4343 28.6629 78.2164 29.3041 78.2544C29.9452 78.2924 30.5452 78.5833 30.9729 79.0635C31.4007 79.5432 31.6217 80.1731 31.5876 80.8156C31.5534 81.4581 31.2669 82.0608 30.7907 82.4923C30.3407 82.8826 29.7662 83.0985 29.1712 83.1009C28.8301 83.1049 28.4922 83.0344 28.1811 82.8942C27.8699 82.7541 27.593 82.5477 27.3695 82.2894ZM86.0761 75.716C85.5074 75.4142 85.0815 74.8986 84.8917 74.2824C84.7019 73.6662 84.7639 72.9998 85.0639 72.4293C85.211 72.1478 85.4121 71.8982 85.6557 71.6948C85.8993 71.4914 86.1805 71.3382 86.4833 71.2439C86.7861 71.1497 87.1045 71.1163 87.4202 71.1456C87.7359 71.1749 88.0428 71.2664 88.3231 71.4149C88.6057 71.5605 88.8567 71.7608 89.0617 72.0042C89.2668 72.2475 89.4217 72.5291 89.5177 72.8327C89.6137 73.1363 89.6487 73.4559 89.6209 73.7732C89.5931 74.0905 89.5029 74.3991 89.3555 74.6812C89.1488 75.0781 88.8377 75.4108 88.4559 75.6432C88.0741 75.8757 87.6362 75.9991 87.1895 76C86.8015 75.9922 86.4206 75.895 86.0761 75.716ZM18.8874 66.2007C18.809 65.8903 18.7931 65.5673 18.8404 65.2506C18.8878 64.9339 18.9976 64.6297 19.1634 64.356C19.3292 64.0822 19.5477 63.8442 19.8061 63.6559C20.0646 63.4675 20.3579 63.3326 20.6688 63.2589C21.2912 63.1108 21.9467 63.2125 22.4952 63.5423C23.0437 63.8722 23.4418 64.4039 23.6042 65.024C23.7513 65.6505 23.6471 66.3099 23.3139 66.8601C22.9807 67.4103 22.4452 67.8074 21.8227 67.9658H21.2357C20.7057 67.9686 20.1894 67.7976 19.7654 67.479C19.3415 67.1603 19.0331 66.7114 18.8874 66.2007ZM88.8494 57.0304C88.8468 56.7117 88.9071 56.3955 89.027 56.1003C89.1468 55.805 89.3239 55.5365 89.5478 55.3101C89.7718 55.0838 90.0383 54.9041 90.3319 54.7815C90.6255 54.659 90.9404 54.5958 91.2584 54.5958C91.5765 54.5932 91.8919 54.6536 92.1865 54.7738C92.4811 54.8939 92.7491 55.0713 92.9749 55.2958C93.2008 55.5202 93.3801 55.7873 93.5024 56.0815C93.6247 56.3758 93.6877 56.6914 93.6877 57.0101C93.6877 57.3289 93.6247 57.6445 93.5024 57.9388C93.3801 58.233 93.2008 58.5001 92.9749 58.7245C92.7491 58.949 92.4811 59.1264 92.1865 59.2465C91.8919 59.3667 91.5765 59.4271 91.2584 59.4245C90.623 59.4245 90.0133 59.1729 89.5621 58.7245C89.1109 58.2761 88.8548 57.6672 88.8494 57.0304ZM20.6284 50.9439C20.0075 50.7901 19.4722 50.397 19.1386 49.85C18.8051 49.3031 18.7003 48.6464 18.8469 48.0224C19.0003 47.3958 19.3955 46.8557 19.9459 46.5209C20.4963 46.1862 21.1568 46.0841 21.7823 46.2371C22.4047 46.3955 22.9402 46.7925 23.2734 47.3428C23.6066 47.893 23.7108 48.5524 23.5637 49.1789C23.433 49.7046 23.1312 50.1716 22.7058 50.506C22.2805 50.8404 21.756 51.0231 21.2154 51.0251C21.0158 51.0205 20.818 50.9863 20.6284 50.9237V50.9439ZM85.0032 41.5099C84.8543 41.2301 84.7618 40.9237 84.7311 40.6082C84.7004 40.2926 84.732 39.9741 84.8241 39.6708C84.9162 39.3675 85.067 39.0853 85.2679 38.8404C85.4689 38.5955 85.716 38.3927 85.9951 38.2435C86.5619 37.9412 87.225 37.8761 87.8395 38.0624C88.454 38.2487 88.9699 38.6712 89.2746 39.2376C89.5761 39.8056 89.6411 40.4702 89.4552 41.086C89.2693 41.7019 88.8477 42.219 88.2826 42.5243C87.929 42.7174 87.5314 42.8153 87.1287 42.8083C86.6875 42.8067 86.2553 42.6827 85.8801 42.4499C85.5049 42.2171 85.2013 41.8847 85.0032 41.4896V41.5099ZM27.491 35.4234C27.2499 35.2141 27.0528 34.9589 26.911 34.6726C26.7691 34.3863 26.6854 34.0746 26.6647 33.7557C26.644 33.4367 26.6867 33.1168 26.7903 32.8145C26.8939 32.5122 27.0564 32.2335 27.2683 31.9947C27.4771 31.7531 27.7318 31.5555 28.0174 31.4134C28.3031 31.2712 28.6141 31.1873 28.9323 31.1666C29.2506 31.1458 29.5698 31.1886 29.8714 31.2925C30.1731 31.3963 30.4511 31.5591 30.6895 31.7715C31.1686 32.2001 31.4589 32.8014 31.4968 33.444C31.5347 34.0865 31.3172 34.718 30.8919 35.2002C30.6655 35.4617 30.3856 35.6713 30.0712 35.8148C29.7569 35.9583 29.4154 36.0324 29.07 36.032C28.4698 36.0001 27.9046 35.7387 27.491 35.3017V35.4234ZM74.436 29.7832C73.9072 29.4146 73.5462 28.8505 73.4323 28.2152C73.3185 27.5798 73.461 26.9251 73.8286 26.3951C74.1931 25.8677 74.7505 25.5057 75.3798 25.388C76.0091 25.2702 76.6593 25.4061 77.1891 25.7662C77.7154 26.1314 78.0765 26.6901 78.194 27.3207C78.3115 27.9514 78.1759 28.603 77.8167 29.134C77.5962 29.4689 77.2952 29.7429 76.9415 29.9308C76.5878 30.1186 76.1926 30.2144 75.7923 30.2093C75.2981 30.1567 74.8285 29.967 74.436 29.6615V29.7832ZM40.7708 24.7518C40.5456 24.1487 40.5658 23.4812 40.8271 22.8929C41.0884 22.3047 41.5698 21.8429 42.1676 21.6071C42.7689 21.3758 43.4373 21.3934 44.0257 21.6559C44.6141 21.9185 45.0744 22.4044 45.3054 23.007C45.5305 23.61 45.5103 24.2775 45.249 24.8657C44.9878 25.454 44.5063 25.9158 43.9085 26.1516C43.6295 26.2543 43.3353 26.3091 43.0381 26.3139C42.5338 26.2989 42.0462 26.1295 41.6408 25.8285C41.2355 25.5274 40.9318 25.1092 40.7708 24.63V24.7518ZM59.6379 24.204C58.9979 24.1275 58.4138 23.8014 58.0121 23.2963C57.6105 22.7912 57.4236 22.1478 57.492 21.5056C57.5681 20.8657 57.8942 20.2821 58.3989 19.8828C58.9036 19.4835 59.5457 19.301 60.1844 19.3753C60.5017 19.4105 60.8087 19.5085 61.0879 19.6636C61.367 19.8188 61.6125 20.0279 61.8103 20.279C62.0081 20.53 62.1541 20.818 62.2399 21.1261C62.3257 21.4342 62.3495 21.7563 62.31 22.0737C62.2446 22.6654 61.9616 23.2114 61.5162 23.6053C61.0708 23.9992 60.495 24.2126 59.901 24.204H59.6379Z" fill="#FFAF00"/>
</g>
<defs>
<clipPath id="clip0_136_1952">
<rect width="113" height="114" fill="white"/>
</clipPath>
</defs>
</svg>
