<svg width="101" height="101" viewBox="0 0 101 101" fill="none" xmlns="http://www.w3.org/2000/svg">
<g opacity="0.1" clip-path="url(#clip0_136_1956)">
<path d="M59.1308 101C82.2545 101 101 82.2546 101 59.1309C101 36.0073 82.2545 17.2618 59.1308 17.2618C36.0072 17.2618 17.2617 36.0073 17.2617 59.1309C17.2617 82.2546 36.0072 101 59.1308 101Z" fill="#FFAF00"/>
<path d="M44.0727 85.9418C67.1964 85.9418 85.9418 67.1964 85.9418 44.0727C85.9418 20.949 67.1964 2.20361 44.0727 2.20361C20.949 2.20361 2.20361 20.949 2.20361 44.0727C2.20361 67.1964 20.949 85.9418 44.0727 85.9418Z" stroke="#010101" stroke-width="3" stroke-linecap="round" stroke-linejoin="round"/>
<path d="M44.0726 64.2727C55.2287 64.2727 64.2726 55.2288 64.2726 44.0727C64.2726 32.9165 55.2287 23.8727 44.0726 23.8727C32.9164 23.8727 23.8726 32.9165 23.8726 44.0727C23.8726 55.2288 32.9164 64.2727 44.0726 64.2727Z" stroke="#010101" stroke-width="3" stroke-linecap="round" stroke-linejoin="round"/>
</g>
<defs>
<clipPath id="clip0_136_1956">
<rect width="101" height="101" fill="white"/>
</clipPath>
</defs>
</svg>
