<svg width="38" height="37" viewBox="0 0 38 37" fill="none" xmlns="http://www.w3.org/2000/svg">
<path d="M16.5838 22.9646L13.5909 19.9718C13.3089 19.6898 13.3089 19.2326 13.5909 18.9506L14.3453 18.1963C14.6272 17.9143 15.0844 17.9143 15.3664 18.1963L16.5838 19.4137C16.8657 19.6956 17.323 19.6956 17.6049 19.4137L22.4767 14.5418C22.7587 14.2599 23.2159 14.2598 23.4979 14.5418L24.2522 15.2961C24.5343 15.5781 24.5343 16.0353 24.2522 16.3173L17.6049 22.9646C17.323 23.2466 16.8657 23.2466 16.5838 22.9646Z" stroke="#FF6B00" stroke-width="1.29258" stroke-miterlimit="10" stroke-linecap="round" stroke-linejoin="round"/>
<path d="M36.5846 18.6234C36.5846 19.4597 35.5552 20.2134 35.4406 21.018C35.3231 21.8426 36.0978 22.8544 35.8683 23.6373C35.6348 24.4338 34.4344 24.8666 34.094 25.6109C33.7497 26.3636 34.2062 27.5539 33.7618 28.2439C33.3148 28.9381 32.0413 29.015 31.5025 29.6364C30.9625 30.2589 31.0666 31.5302 30.4439 32.0701C29.8225 32.609 28.5791 32.3262 27.8849 32.7733C27.1949 33.2177 26.9379 34.4674 26.1852 34.8117C25.4409 35.1521 24.3283 34.5303 23.5318 34.7638C22.7489 34.9933 22.1489 36.1193 21.3243 36.2368C20.5197 36.3515 19.6285 35.4408 18.7922 35.4408C17.956 35.4408 17.0648 36.3515 16.2601 36.2368C15.4355 36.1193 14.8355 34.9933 14.0526 34.7638C13.2561 34.5303 12.1435 35.152 11.3992 34.8116C10.6465 34.4673 10.3895 33.2176 9.69954 32.7732C9.00532 32.3262 7.76187 32.6089 7.14046 32.0701C6.51791 31.5301 6.62187 30.2589 6.08201 29.6363C5.54316 29.0149 4.2697 28.938 3.82264 28.2438C3.3783 27.5538 3.83481 26.3635 3.49049 25.6108C3.15004 24.8665 1.94969 24.4337 1.7162 23.6372C1.48673 22.8544 2.26143 21.8425 2.14386 21.0179C2.02938 20.2134 1 19.4597 1 18.6234C1 17.7872 2.02938 17.0335 2.14401 16.2289C2.2615 15.4043 1.4868 14.3925 1.71635 13.6096C1.94983 12.8131 3.15018 12.3803 3.49064 11.636C3.83488 10.8833 3.37844 9.693 3.82278 9.003C4.26985 8.30878 5.5433 8.23188 6.08216 7.61054C6.62208 6.98799 6.51805 5.71668 7.14067 5.17676C7.76208 4.6379 9.00554 4.92065 9.69976 4.47358C10.3898 4.02924 10.6467 2.77948 11.3994 2.43524C12.1437 2.09479 13.2563 2.71662 14.0528 2.48307C14.8357 2.25359 15.4357 1.12756 16.2603 1.01006C17.0648 0.895362 17.956 1.80603 18.7923 1.80603C19.6286 1.80603 20.5198 0.89529 21.3244 1.00999C22.149 1.12748 22.749 2.25352 23.5319 2.48307C24.3285 2.71655 25.441 2.09479 26.1854 2.43524C26.938 2.77948 27.195 4.02924 27.885 4.47358C28.5792 4.92065 29.8227 4.6379 30.4441 5.17676C31.0666 5.71668 30.9627 6.98792 31.5025 7.61054C32.0414 8.23195 33.3148 8.30878 33.7619 9.003C34.2063 9.693 33.7497 10.8833 34.0941 11.636C34.4345 12.3803 35.6349 12.8131 35.8683 13.6096C36.0978 14.3925 35.3231 15.4043 35.4407 16.2289C35.5552 17.0335 36.5846 17.7872 36.5846 18.6234Z" stroke="#FF6B00" stroke-width="1.29258" stroke-miterlimit="10" stroke-linecap="round" stroke-linejoin="round"/>
<path d="M9.82219 8.52664C12.2076 6.40588 15.3496 5.11768 18.7924 5.11768C26.2514 5.11768 32.2981 11.1644 32.2981 18.6234C32.2981 26.0825 26.2514 32.1292 18.7924 32.1292C11.3334 32.1292 5.28662 26.0825 5.28662 18.6234C5.28662 15.5375 6.32165 12.6932 8.06344 10.4189" stroke="#FF6B00" stroke-width="1.29258" stroke-miterlimit="10" stroke-linecap="round" stroke-linejoin="round"/>
<path d="M24.6802 26.9354C23.0177 28.1152 20.9859 28.8087 18.7922 28.8087C13.1671 28.8087 8.60693 24.2486 8.60693 18.6235C8.60693 12.9983 13.1671 8.43823 18.7922 8.43823C24.4174 8.43823 28.9775 12.9984 28.9775 18.6235C28.9775 21.1518 28.0563 23.465 26.5312 25.2456" stroke="#FF6B00" stroke-width="1.29258" stroke-miterlimit="10" stroke-linecap="round" stroke-linejoin="round"/>
</svg>
