<svg width="37" height="37" viewBox="0 0 37 37" fill="none" xmlns="http://www.w3.org/2000/svg">
<path d="M34.5956 25.3797C35.4999 23.268 36 20.9427 36 18.5C36 8.8349 28.1651 1 18.5 1C8.8349 1 1 8.8349 1 18.5C1 28.1651 8.8349 36 18.5 36C20.9427 36 23.2681 35.4998 25.3797 34.5956" stroke="#FF6B00" stroke-width="1.63" stroke-miterlimit="10"/>
<path d="M30.825 23.022C31.3428 21.6118 31.625 20.0886 31.625 18.4998C31.625 11.2511 25.7486 5.37476 18.5 5.37476C11.2514 5.37476 5.375 11.2511 5.375 18.4998C5.375 25.7484 11.2514 31.6248 18.5 31.6248C20.0889 31.6248 21.6121 31.3426 23.0223 30.8249" stroke="#FF6B00" stroke-width="1.63" stroke-miterlimit="10"/>
<path d="M18.5 5.37476V8.65601" stroke="#FF6B00" stroke-width="1.63" stroke-miterlimit="10"/>
<path d="M11.9375 7.13306L13.5781 9.97469" stroke="#FF6B00" stroke-width="1.63" stroke-miterlimit="10"/>
<path d="M7.1333 11.9373L9.97494 13.5779" stroke="#FF6B00" stroke-width="1.63" stroke-miterlimit="10"/>
<path d="M5.375 18.4998H8.65625" stroke="#FF6B00" stroke-width="1.63" stroke-miterlimit="10"/>
<path d="M7.1333 25.0623L9.97494 23.4216" stroke="#FF6B00" stroke-width="1.63" stroke-miterlimit="10"/>
<path d="M11.9375 29.8666L13.5781 27.0249" stroke="#FF6B00" stroke-width="1.63" stroke-miterlimit="10"/>
<path d="M18.5 31.6248V28.3435" stroke="#FF6B00" stroke-width="1.63" stroke-miterlimit="10"/>
<path d="M31.625 18.4998H28.3438" stroke="#FF6B00" stroke-width="1.63" stroke-miterlimit="10"/>
<path d="M29.8665 11.9373L27.0249 13.5779" stroke="#FF6B00" stroke-width="1.63" stroke-miterlimit="10"/>
<path d="M25.0625 7.13306L23.4219 9.97469" stroke="#FF6B00" stroke-width="1.63" stroke-miterlimit="10"/>
<path d="M29.4375 35.9998C33.0619 35.9998 36 33.0616 36 29.4373C36 25.8129 33.0619 22.8748 29.4375 22.8748C25.8131 22.8748 22.875 25.8129 22.875 29.4373C22.875 33.0616 25.8131 35.9998 29.4375 35.9998Z" stroke="#FF6B00" stroke-width="1.63" stroke-miterlimit="10"/>
<path d="M29.4375 26.156V32.7185" stroke="#FF6B00" stroke-width="1.63" stroke-miterlimit="10"/>
<path d="M32.7187 29.4373H26.1562" stroke="#FF6B00" stroke-width="1.63" stroke-miterlimit="10"/>
<path d="M18.5 10.8435V18.4998L15.2188 23.9685" stroke="#FF6B00" stroke-width="1.63" stroke-miterlimit="10"/>
</svg>
