<svg width="68" height="56" viewBox="0 0 68 56" fill="none" xmlns="http://www.w3.org/2000/svg">
<path d="M63.8535 7.31733H34.8287V1.51246C34.8287 1.05219 34.4596 0.683105 33.9993 0.683105H4.14549C1.85666 0.683105 -0.000976562 2.54074 -0.000976562 4.82957V44.6349C-0.000976562 46.9237 1.85666 48.7814 4.14549 48.7814H33.1701V54.5864C33.1701 55.0467 33.5392 55.4158 33.9995 55.4158H63.8535C66.1423 55.4158 68 53.5581 68 51.2693V11.4638C68 9.17909 66.1423 7.31733 63.8535 7.31733ZM4.14549 47.1228C2.77308 47.1228 1.65758 46.0075 1.65758 44.6349V4.82957C1.65758 3.45716 2.77292 2.34166 4.14549 2.34166H33.1701V8.14669V47.1228H4.14549ZM66.3414 51.2691C66.3414 52.6415 65.2261 53.757 63.8535 53.757H34.8287V47.952V8.97588H63.8535C65.2259 8.97588 66.3414 10.0912 66.3414 11.4638V51.2691Z" fill="#FF6B00"/>
<path d="M27.3659 7.31689H20.7317C20.2714 7.31689 19.9023 7.68597 19.9023 8.14625C19.9023 8.60653 20.2714 8.97561 20.7317 8.97561H27.3659C27.8262 8.97561 28.1953 8.60653 28.1953 8.14625C28.1951 7.68597 27.8262 7.31689 27.3659 7.31689Z" fill="#FF6B00"/>
<path d="M27.3663 15.6097C27.8266 15.6097 28.1957 15.2406 28.1957 14.7803C28.1957 14.32 27.8266 13.951 27.3663 13.951H14.9271V8.14625C14.9271 7.68597 14.558 7.31689 14.0977 7.31689H7.46363C7.00336 7.31689 6.63428 7.68597 6.63428 8.14625V28.0489C6.63428 28.5092 7.00336 28.8783 7.46363 28.8783H14.0979H27.3663C27.8266 28.8783 28.1957 28.5092 28.1957 28.0489C28.1957 27.5886 27.8266 27.2196 27.3663 27.2196H14.9271V22.2439H20.7321C21.1924 22.2439 21.5614 21.8748 21.5614 21.4145C21.5614 20.9543 21.1924 20.5852 20.7321 20.5852H14.9271V15.6095H27.3663V15.6097ZM8.29283 8.97545H13.2685V27.2196H8.29283V8.97545Z" fill="#FF6B00"/>
<path d="M27.3663 40.4885H7.46363C7.00336 40.4885 6.63428 40.8576 6.63428 41.3179C6.63428 41.7782 7.00336 42.1472 7.46363 42.1472H27.3663C27.8266 42.1472 28.1957 41.7782 28.1957 41.3179C28.1955 40.8616 27.8266 40.4885 27.3663 40.4885Z" fill="#FF6B00"/>
<path d="M60.5375 13.9512H47.2691H40.6349C40.1746 13.9512 39.8057 14.3203 39.8057 14.7805V41.3174C39.8057 41.7777 40.1747 42.1468 40.6349 42.1468H47.2691H60.5375C60.9978 42.1468 61.3669 41.7777 61.3669 41.3174C61.3669 40.8571 60.9978 40.4881 60.5375 40.4881H48.0983V28.8782H53.9033C54.3636 28.8782 54.7327 28.5091 54.7327 28.0488C54.7327 27.5885 54.3636 27.2195 53.9033 27.2195H48.0983V22.2438H53.9033C54.3636 22.2438 54.7327 21.8747 54.7327 21.4144C54.7327 20.9542 54.3636 20.5851 53.9033 20.5851H48.0983V15.6094H60.5375C60.9978 15.6094 61.3669 15.2403 61.3669 14.7801C61.3669 14.3244 60.9978 13.9512 60.5375 13.9512ZM41.4642 15.6097H46.4399V40.4881H41.4642V15.6097Z" fill="#FF6B00"/>
<path d="M60.5375 47.1223H40.6349C40.1746 47.1223 39.8057 47.4914 39.8057 47.9517C39.8057 48.4119 40.1747 48.781 40.6349 48.781H60.5375C60.9978 48.781 61.3669 48.4119 61.3669 47.9517C61.3669 47.4914 60.9978 47.1223 60.5375 47.1223Z" fill="#FF6B00"/>
<path d="M60.5373 33.854H53.9031C53.4428 33.854 53.0737 34.2231 53.0737 34.6832C53.0737 35.1435 53.4428 35.5126 53.9031 35.5126H60.5373C60.9976 35.5126 61.3667 35.1435 61.3667 34.6832C61.3667 34.2229 60.9976 33.854 60.5373 33.854Z" fill="#FF6B00"/>
</svg>
