<svg width="55" height="55" viewBox="0 0 55 55" fill="none" xmlns="http://www.w3.org/2000/svg">
<path d="M30.5741 54.6068H24.0327C23.5599 54.6068 23.1795 54.2264 23.1795 53.7536V49.2492C20.1576 48.684 17.2531 47.4788 14.7076 45.7368L11.5222 48.9222C11.188 49.2563 10.6476 49.2563 10.317 48.9222L5.68465 44.2969C5.35047 43.9627 5.35047 43.4224 5.68465 43.0917L8.87005 39.9063C7.12804 37.3609 5.92285 34.4563 5.35758 31.4345H0.853231C0.380399 31.4345 0 31.0541 0 30.5812V24.0327C0 23.5599 0.380399 23.1795 0.853231 23.1795H5.35758C5.92285 20.1576 7.12804 17.2531 8.87005 14.7076L5.68465 11.5186C5.52467 11.3586 5.43579 11.1418 5.43579 10.9143C5.43579 10.6867 5.52467 10.4699 5.68465 10.3099L10.3099 5.68465C10.4699 5.52467 10.6867 5.43579 10.9143 5.43579C11.1418 5.43579 11.3586 5.52467 11.5186 5.68465L14.704 8.87005C17.253 7.12804 20.154 5.92285 23.1759 5.35758V0.853231C23.1759 0.380399 23.5563 0 24.0291 0H30.5741C31.047 0 31.4274 0.380399 31.4274 0.853231V5.35758C34.4492 5.92285 37.3538 7.12804 39.8992 8.87005L43.0846 5.68465C43.2446 5.52467 43.4615 5.43579 43.689 5.43579C43.9165 5.43579 44.1334 5.52467 44.2934 5.68465L48.9222 10.3099C49.2563 10.6441 49.2563 11.1844 48.9222 11.5151L45.7368 14.7005C47.4788 17.2459 48.684 20.1505 49.2492 23.1723H53.7536C54.2264 23.1723 54.6068 23.5527 54.6068 24.0256V30.5741C54.6068 31.047 54.2264 31.4274 53.7536 31.4274H49.2492C48.684 34.4492 47.4788 37.3538 45.7368 39.8992L48.9222 43.0846C49.2563 43.4188 49.2563 43.9592 48.9222 44.2898L44.2969 48.9222C43.9627 49.2563 43.4224 49.2563 43.0917 48.9222L39.9063 45.7368C37.3609 47.4788 34.4563 48.684 31.4345 49.2492V53.7536C31.4274 54.2264 31.047 54.6068 30.5741 54.6068ZM24.8859 52.9003H29.7209V48.5311C29.7209 48.108 30.0302 47.7525 30.4461 47.6885C33.6991 47.1908 36.8276 45.8932 39.4904 43.9379C39.8317 43.689 40.301 43.7246 40.5996 44.0232L43.6926 47.1162L47.1126 43.6961L44.0196 40.6031C43.721 40.3045 43.6855 39.8352 43.9343 39.4939C45.8896 36.8312 47.1873 33.7026 47.685 30.4497C47.749 30.0337 48.108 29.7244 48.5275 29.7244H52.9003V24.8859H48.5311C48.108 24.8859 47.7525 24.5766 47.6885 24.1607C47.1908 20.9077 45.8932 17.7792 43.9379 15.1164C43.689 14.7751 43.7246 14.3058 44.0232 14.0072L47.1162 10.9143L43.6961 7.49422L40.6031 10.5872C40.3045 10.8858 39.8352 10.9214 39.4939 10.6725C36.8312 8.71718 33.7026 7.41956 30.4497 6.92184C30.0337 6.85785 29.7244 6.49878 29.7244 6.07927V1.70646H24.8859V6.07927C24.8859 6.50233 24.5766 6.85785 24.1607 6.92184C20.9077 7.41956 17.7792 8.71718 15.1164 10.6725C14.7751 10.9214 14.3058 10.8858 14.0072 10.5872L10.9143 7.49422L7.49422 10.9143L10.5872 14.0072C10.8858 14.3058 10.9214 14.7751 10.6725 15.1164C8.71718 17.7792 7.41956 20.9077 6.92184 24.1607C6.85785 24.5766 6.49878 24.8859 6.07927 24.8859H1.70646V29.7209H6.07927C6.50233 29.7209 6.85785 30.0302 6.92184 30.4461C7.41956 33.6991 8.71718 36.8276 10.6725 39.4904C10.9214 39.8317 10.8858 40.301 10.5872 40.5996L7.49422 43.6926L10.9143 47.1126L14.0072 44.0196C14.3058 43.721 14.7751 43.6855 15.1164 43.9343C17.7792 45.8896 20.9077 47.1873 24.1607 47.685C24.5766 47.749 24.8859 48.108 24.8859 48.5275V52.9003Z" fill="#FF6B00"/>
<path d="M27.3034 42.9531C25.1916 42.9531 23.1403 42.5408 21.2134 41.7231C19.3505 40.9338 17.6761 39.8069 16.2398 38.3706C14.8035 36.9343 13.6765 35.2598 12.8873 33.397C12.0696 31.4665 11.6572 29.4188 11.6572 27.307C11.6572 25.1953 12.0696 23.144 12.8873 21.2171C13.6765 19.3542 14.8035 17.6797 16.2398 16.2435C17.6761 14.8072 19.3505 13.6802 21.2134 12.891C23.1439 12.0733 25.1916 11.6609 27.3034 11.6609C29.4151 11.6609 31.4664 12.0733 33.3933 12.891C35.2562 13.6802 36.9306 14.8072 38.3669 16.2435C39.8032 17.6797 40.9302 19.3542 41.7194 21.2171C42.5371 23.1475 42.9495 25.1953 42.9495 27.307C42.9495 29.4188 42.5371 31.4701 41.7194 33.397C40.9302 35.2598 39.8032 36.9343 38.3669 38.3706C36.9306 39.8069 35.2562 40.9338 33.3933 41.7231C31.4664 42.5372 29.4151 42.9531 27.3034 42.9531ZM27.3034 13.3602C19.6172 13.3602 13.3601 19.6137 13.3601 27.3035C13.3601 34.9932 19.6136 41.2467 27.3034 41.2467C34.9931 41.2467 41.2466 34.9932 41.2466 27.3035C41.2466 19.6137 34.9895 13.3602 27.3034 13.3602Z" fill="#FF6B00"/>
<path d="M22.4616 31.6125C22.2803 31.6125 22.099 31.5556 21.9462 31.4383L17.424 27.9827C17.2143 27.8228 17.0898 27.5703 17.0898 27.3037C17.0898 27.0371 17.2143 26.7882 17.424 26.6247L21.9462 23.1691C22.3194 22.8847 22.8563 22.9558 23.1407 23.3291C23.4251 23.7024 23.354 24.2392 22.9807 24.5236L19.3474 27.3037L22.9807 30.0803C23.354 30.3647 23.4286 30.9015 23.1407 31.2748C22.9736 31.4952 22.7212 31.6125 22.4616 31.6125Z" fill="#FF6B00"/>
<path d="M32.1458 31.6123C31.8898 31.6123 31.6338 31.4985 31.4668 31.2781C31.1823 30.9048 31.2534 30.368 31.6267 30.0836L35.2601 27.307L31.6267 24.5304C31.2534 24.246 31.1788 23.7092 31.4668 23.3359C31.7512 22.9626 32.288 22.8915 32.6613 23.1759L37.1834 26.6315C37.3932 26.7915 37.5176 27.0439 37.5176 27.3105C37.5176 27.5772 37.3932 27.826 37.1834 27.9896L32.6613 31.4452C32.5084 31.5554 32.3235 31.6123 32.1458 31.6123Z" fill="#FF6B00"/>
<path d="M25.8244 33.4433C25.7497 33.4433 25.6715 33.4327 25.5933 33.4113C25.1382 33.2833 24.8751 32.8141 24.9996 32.359L27.9539 21.7825C28.0819 21.3274 28.5512 21.0644 29.0062 21.1888C29.4613 21.3168 29.7243 21.786 29.5999 22.2411L26.6456 32.8176C26.5425 33.198 26.1977 33.4433 25.8244 33.4433Z" fill="#FF6B00"/>
</svg>
