<svg width="55" height="55" viewBox="0 0 55 55" fill="none" xmlns="http://www.w3.org/2000/svg">
<path d="M27.1119 27.0133C27.5949 27.0133 27.9865 26.6218 27.9865 26.1387C27.9865 25.6557 27.5949 25.2642 27.1119 25.2642C26.6289 25.2642 26.2373 25.6557 26.2373 26.1387C26.2373 26.6218 26.6289 27.0133 27.1119 27.0133Z" fill="#FF6B00"/>
<path d="M27.1123 30.5117C29.5235 30.5117 31.4852 28.55 31.4852 26.1388C31.4852 25.2493 31.215 24.422 30.7567 23.7311L33.4504 21.0373C34.1422 21.4956 34.9687 21.7659 35.8581 21.7659C38.2694 21.7659 40.231 19.8042 40.231 17.3929C40.231 14.9817 38.2694 13.02 35.8581 13.02C33.4469 13.02 31.4852 14.9817 31.4852 17.3929C31.4852 18.2824 31.7554 19.1089 32.2137 19.8007L29.52 22.4944C28.8282 22.0361 28.0017 21.7659 27.1123 21.7659C25.001 21.7659 23.2344 23.271 22.8277 25.2642H20.8293C20.4672 24.2488 19.5051 23.515 18.3664 23.515C16.9199 23.515 15.7427 24.6922 15.7427 26.1388C15.7427 27.5854 16.9199 28.7625 18.3664 28.7625C19.5051 28.7625 20.4672 28.0288 20.8293 27.0134H22.8277C23.2344 29.0066 25.001 30.5117 27.1123 30.5117ZM35.8581 14.7692C37.3047 14.7692 38.4819 15.9464 38.4819 17.3929C38.4819 18.8395 37.3047 20.0167 35.8581 20.0167C34.4116 20.0167 33.2344 18.8395 33.2344 17.3929C33.2344 15.9464 34.4116 14.7692 35.8581 14.7692ZM27.1123 23.515C28.5588 23.515 29.736 24.6922 29.736 26.1388C29.736 27.5854 28.5588 28.7625 27.1123 28.7625C25.6657 28.7625 24.4885 27.5854 24.4885 26.1388C24.4885 24.6922 25.6657 23.515 27.1123 23.515ZM18.3664 27.0134C17.8837 27.0134 17.4918 26.6207 17.4918 26.1388C17.4918 25.6569 17.8837 25.2642 18.3664 25.2642C18.8492 25.2642 19.241 25.6569 19.241 26.1388C19.241 26.6207 18.8492 27.0134 18.3664 27.0134Z" fill="#FF6B00"/>
<path d="M35.858 18.2675C36.341 18.2675 36.7326 17.8759 36.7326 17.3929C36.7326 16.9099 36.341 16.5183 35.858 16.5183C35.375 16.5183 34.9834 16.9099 34.9834 17.3929C34.9834 17.8759 35.375 18.2675 35.858 18.2675Z" fill="#FF6B00"/>
<path d="M1.04492 41.0067H3.49813V48.0034H5.2473V39.2575H4.20217L6.99647 34.7858L9.79077 39.2575H8.74564V55.0001H10.4948V41.0067H12.948L6.99647 31.4851L1.04492 41.0067Z" fill="#FF6B00"/>
<path d="M3.49854 49.7524H5.2477V54.9999H3.49854V49.7524Z" fill="#FF6B00"/>
<path d="M43.7291 11.2708H45.4783V7.77243H44.4331L47.2274 3.30068L50.0217 7.77243H48.9766V23.515H50.7258V9.5216H53.179L47.2274 0L41.2759 9.5216H43.7291V11.2708Z" fill="#FF6B00"/>
<path d="M53.3628 36.624C52.5074 36.4814 51.7981 35.9173 51.4658 35.1153C51.1343 34.3142 51.2375 33.4143 51.7413 32.7085L52.2486 31.9983L47.4908 27.2397L46.7798 27.7478C46.1763 28.1781 45.4338 28.2962 44.7315 28.1204C45.1784 26.6493 45.4277 25.104 45.4644 23.5148H45.4784V13.0198H43.7292V15.6296C40.948 9.95178 35.1259 6.02314 28.3881 6.02314H25.8361C24.8137 6.02314 23.8167 6.12984 22.8433 6.30213L18.4292 1.88811L17.1532 3.16325C16.9223 3.39414 16.5777 3.45886 16.248 3.32417C15.9411 3.19911 15.7425 2.907 15.7425 2.5799V0.775635H8.74585V2.5799C8.74585 2.907 8.54732 3.19911 8.21847 3.33379C7.91149 3.46061 7.56516 3.39327 7.33601 3.16325L6.06 1.88811L1.11247 6.83476L2.38762 8.11165C2.61851 8.34254 2.68497 8.688 2.54941 9.01685C2.42347 9.32295 2.13136 9.52148 1.80427 9.52148H0V16.5182H1.80427C2.13049 16.5182 2.4226 16.7167 2.55816 17.0464C2.68497 17.3516 2.61763 17.698 2.38674 17.9289L1.11247 19.2049L6.05912 24.1515L7.33514 22.8764C7.56603 22.6464 7.91062 22.5799 8.24034 22.7155C8.54731 22.8405 8.74585 23.1326 8.74585 23.4597H8.75809C8.8849 29.8346 12.4698 35.5377 18.1931 38.3994L19.2409 38.9233V41.0065C19.2409 41.9712 20.0254 42.7557 20.99 42.7557H24.4884V43.4973L25.3533 43.6408C25.9515 43.7405 26.4693 44.0553 26.8445 44.5049H20.99C20.0254 44.5049 19.2409 45.2894 19.2409 46.254V47.1286C19.2409 51.4683 22.7716 54.9999 27.1121 54.9999C29.5854 54.9999 31.7938 53.8507 33.2377 52.0604C33.6155 52.0377 33.9934 52.098 34.3458 52.2432C35.1443 52.5738 35.7058 53.2796 35.8475 54.134L35.9927 54.9999H42.7226L42.8634 54.1393C43.0059 53.2831 43.5701 52.5738 44.3729 52.2423C45.1723 51.9108 46.0731 52.0123 46.7798 52.5178L47.4908 53.0251L52.2494 48.2664L51.743 47.558C51.2375 46.8505 51.1352 45.9488 51.4676 45.1451C51.799 44.3448 52.5066 43.7825 53.3584 43.6408L54.2242 43.4973V36.7674L53.3628 36.624ZM33.2342 44.5049H32.824C32.4558 43.9556 32.1593 43.3723 31.9416 42.7557H33.2342C33.4284 42.7557 33.612 42.7163 33.7861 42.6577C34.7507 44.7751 36.8821 46.254 39.3563 46.254C42.7313 46.254 45.4784 43.5078 45.4784 40.1319C45.4784 37.419 43.7406 35.1293 41.2961 34.3221C41.6976 33.8612 42.0754 33.3819 42.4243 32.8816C45.3227 34.1034 47.2276 36.938 47.2276 40.1319C47.2276 44.4716 43.6969 48.0032 39.3563 48.0032C37.7794 48.0032 36.2786 47.5405 34.9834 46.6712V46.254C34.9834 45.2894 34.1989 44.5049 33.2342 44.5049ZM36.7326 35.9785C36.2559 36.2864 35.7653 36.5768 35.2493 36.8348L34.9834 36.9677V25.264H36.7326V35.9785ZM34.9834 38.9233L36.0311 38.3994C37.4366 37.6962 38.7109 36.819 39.84 35.8054C42.043 36.0476 43.7292 37.8764 43.7292 40.1319C43.7292 42.5432 41.7675 44.5049 39.3563 44.5049C36.9451 44.5049 34.9834 42.5432 34.9834 40.1319V38.9233ZM6.09935 21.638L6.06 21.6773L3.58667 19.2031L3.62515 19.1646C4.35805 18.4326 4.57408 17.3376 4.1674 16.3581C3.77121 15.3926 2.84327 14.769 1.80427 14.769H1.74917V11.2706H1.80427C2.84327 11.2706 3.77033 10.6471 4.17439 9.66316C4.5732 8.70199 4.35718 7.60701 3.62515 6.87499L3.58667 6.83563L6.06 4.36143L6.09935 4.39991C6.83138 5.13194 7.92461 5.34621 8.90589 4.94216C9.87144 4.54684 10.495 3.61891 10.495 2.5799V2.5248H13.9934V2.5799C13.9934 3.61891 14.6169 4.54684 15.6017 4.9509C16.5646 5.34884 17.6587 5.13281 18.3899 4.40166L18.4292 4.36231L20.8396 6.77266C19.6231 7.14523 18.4695 7.65862 17.3841 8.27957C16.067 6.85575 14.198 6.02314 12.2442 6.02314C8.38639 6.02314 5.24751 9.16203 5.24751 13.0198C5.24751 15.7118 6.80864 18.1353 9.19101 19.2958C9.05632 19.8818 8.94962 20.4783 8.87791 21.0861C7.91761 20.6934 6.82876 20.9094 6.09935 21.638ZM11.1711 14.3833C10.76 14.0571 10.495 13.5629 10.495 13.0198C10.495 12.0552 11.2795 11.2706 12.2442 11.2706C12.6106 11.2706 12.9526 11.3957 13.243 11.6004C12.462 12.454 11.7675 13.3845 11.1711 14.3833ZM14.5032 10.3558C13.8797 9.82584 13.0855 9.52148 12.2442 9.52148C10.3149 9.52148 8.74585 11.0905 8.74585 13.0198C8.74585 14.2154 9.37292 15.3086 10.3428 15.9444C10.0945 16.4797 9.87144 17.028 9.67815 17.5913C8.04705 16.673 6.99668 14.9343 6.99668 13.0198C6.99668 10.1258 9.35018 7.77231 12.2442 7.77231C13.6059 7.77231 14.9082 8.31805 15.879 9.25123C15.4006 9.59582 14.9432 9.9649 14.5032 10.3558ZM18.975 36.8348C18.459 36.5768 17.9675 36.2855 17.4917 35.9785V32.2607H19.2409V36.9677L18.975 36.8348ZM15.7425 30.5115V34.6649C12.4436 31.798 10.495 27.635 10.495 23.1134C10.495 14.6544 17.3771 7.77231 25.8361 7.77231H28.3881C36.8471 7.77231 43.7292 14.6544 43.7292 23.1134C43.7292 27.635 41.7807 31.798 38.4817 34.6649V23.5148H33.2342V41.0065H29.7359V32.2607H24.4884V41.0065H20.99V30.5115H15.7425ZM27.9867 41.0065H26.2375V34.0098H27.9867V41.0065ZM28.8613 44.476C28.5709 43.7746 28.0969 43.2 27.5206 42.7557H30.1119C30.2834 43.3592 30.516 43.9443 30.8029 44.5049H28.87C28.8665 44.4952 28.8648 44.4856 28.8613 44.476ZM27.1121 53.2507C23.7371 53.2507 20.99 50.5045 20.99 47.1286V46.254H33.2342V47.1286C33.2342 50.5045 30.4871 53.2507 27.1121 53.2507ZM52.4751 42.0586C51.2926 42.4347 50.3358 43.3058 49.8513 44.476C49.3659 45.6471 49.4271 46.9415 49.9965 48.0452L47.2695 50.7713C46.1676 50.201 44.8741 50.1407 43.7039 50.6252C42.5337 51.1097 41.6608 52.0665 41.2839 53.2498H37.4296C37.0544 52.0683 36.1842 51.1106 35.014 50.6261C34.77 50.5246 34.5164 50.4564 34.2601 50.4022C34.5181 49.8407 34.7158 49.2469 34.8365 48.6233C36.2192 49.3641 37.7567 49.7524 39.3563 49.7524C44.6607 49.7524 48.9767 45.4363 48.9767 40.1319C48.9767 36.3214 46.7544 32.9341 43.3523 31.3852C43.6383 30.8675 43.898 30.3348 44.1289 29.7874C45.181 30.0996 46.2996 29.9929 47.2695 29.4926L49.9956 32.2187C49.4263 33.3207 49.3651 34.6151 49.8496 35.7853C50.335 36.9563 51.2926 37.8283 52.4751 38.2052V42.0586Z" fill="#FF6B00"/>
</svg>
