<svg width="56" height="55" viewBox="0 0 56 55" fill="none" xmlns="http://www.w3.org/2000/svg">
<path d="M30.7627 5.49984H25.1695C24.6549 5.49984 24.2373 5.08917 24.2373 4.58317C24.2373 4.07717 24.6549 3.6665 25.1695 3.6665H30.7627C31.2773 3.6665 31.6949 4.07717 31.6949 4.58317C31.6949 5.08917 31.2773 5.49984 30.7627 5.49984Z" fill="#FF6B00"/>
<path d="M38.2203 55.0002H17.7118C15.1408 55.0002 13.0508 52.9432 13.0508 50.4168V19.2502C13.0508 18.7442 13.4684 18.3335 13.983 18.3335C14.4976 18.3335 14.9152 18.7442 14.9152 19.2502V50.4168C14.9152 51.933 16.1699 53.1668 17.7118 53.1668H38.2203C39.7621 53.1668 41.0169 51.933 41.0169 50.4168V19.2502C41.0169 18.7442 41.4345 18.3335 41.9491 18.3335C42.4637 18.3335 42.8813 18.7442 42.8813 19.2502V50.4168C42.8813 52.9432 40.7913 55.0002 38.2203 55.0002Z" fill="#FF6B00"/>
<path d="M41.9491 25.6667C41.4345 25.6667 41.0169 25.256 41.0169 24.75V4.58333C41.0169 3.06717 39.7621 1.83333 38.2203 1.83333H17.7118C16.1699 1.83333 14.9152 3.06717 14.9152 4.58333V24.75C14.9152 25.256 14.4976 25.6667 13.983 25.6667C13.4684 25.6667 13.0508 25.256 13.0508 24.75V4.58333C13.0508 2.057 15.1408 0 17.7118 0H38.2203C40.7913 0 42.8813 2.057 42.8813 4.58333V24.75C42.8813 25.256 42.4637 25.6667 41.9491 25.6667Z" fill="#FF6B00"/>
<path d="M47.5421 9.2585C47.0275 9.2585 46.6099 8.9395 46.6099 8.4335V8.25016C46.6099 7.74416 47.0275 7.3335 47.5421 7.3335C48.0566 7.3335 48.4743 7.74416 48.4743 8.25016C48.4743 8.75616 48.0566 9.2585 47.5421 9.2585Z" fill="#FF6B00"/>
<path d="M47.5421 12.925C47.0275 12.925 46.6099 12.606 46.6099 12.1V11.9167C46.6099 11.4107 47.0275 11 47.5421 11C48.0566 11 48.4743 11.4107 48.4743 11.9167C48.4743 12.4227 48.0566 12.925 47.5421 12.925Z" fill="#FF6B00"/>
<path d="M47.5421 16.5915C47.0275 16.5915 46.6099 16.2725 46.6099 15.7665V15.5832C46.6099 15.0772 47.0275 14.6665 47.5421 14.6665C48.0566 14.6665 48.4743 15.0772 48.4743 15.5832C48.4743 16.0892 48.0566 16.5915 47.5421 16.5915Z" fill="#FF6B00"/>
<path d="M8.39021 40.2417C7.87563 40.2417 7.45801 39.9227 7.45801 39.4167V39.2333C7.45801 38.7273 7.87563 38.3167 8.39021 38.3167C8.90479 38.3167 9.32241 38.7273 9.32241 39.2333C9.32241 39.7393 8.90479 40.2417 8.39021 40.2417Z" fill="#FF6B00"/>
<path d="M8.39021 43.9084C7.87563 43.9084 7.45801 43.5894 7.45801 43.0834V42.9001C7.45801 42.3941 7.87563 41.9834 8.39021 41.9834C8.90479 41.9834 9.32241 42.3941 9.32241 42.9001C9.32241 43.4061 8.90479 43.9084 8.39021 43.9084Z" fill="#FF6B00"/>
<path d="M8.39021 47.5749C7.87563 47.5749 7.45801 47.2559 7.45801 46.7499V46.5666C7.45801 46.0606 7.87563 45.6499 8.39021 45.6499C8.90479 45.6499 9.32241 46.0606 9.32241 46.5666C9.32241 47.0726 8.90479 47.5749 8.39021 47.5749Z" fill="#FF6B00"/>
<path d="M44.4494 47.6667C44.3841 47.6667 44.317 47.6612 44.2518 47.6465C43.7484 47.5402 43.4296 47.0525 43.5377 46.5575L44.1529 43.7525C44.2275 43.4078 44.4979 43.1383 44.8446 43.0558C45.7246 42.8468 46.5823 42.4948 47.3933 42.009C47.6935 41.8257 48.0794 41.8312 48.3796 42.0182L50.2253 43.1787L51.3682 42.0457L50.188 40.2453C49.9941 39.9502 49.9904 39.5707 50.175 39.2718C50.6691 38.4743 51.027 37.631 51.2377 36.7657C51.3216 36.4247 51.5938 36.1607 51.9424 36.0837L54.0679 35.6198V34.0487L51.9443 33.5848C51.5957 33.5078 51.3235 33.2438 51.2396 32.9028C51.0289 32.0375 50.669 31.1942 50.1768 30.3967C49.9904 30.0978 49.9941 29.7202 50.188 29.425L51.3701 27.6082L50.229 26.4862L48.3814 27.6485C48.0813 27.8373 47.6972 27.841 47.3952 27.6577C46.5823 27.1718 45.7246 26.8198 44.8465 26.6108C44.4979 26.5283 44.2294 26.257 44.1548 25.9142L43.6962 23.8333H42.8814C42.3668 23.8333 41.9492 23.4227 41.9492 22.9167C41.9492 22.4107 42.3668 22 42.8814 22H44.4475C44.8857 22 45.266 22.3025 45.3574 22.7242L45.8551 24.9847C46.5375 25.1882 47.2068 25.4632 47.8519 25.806L49.8543 24.5465C50.2235 24.3155 50.7045 24.3668 51.0158 24.6712L53.2177 26.8345C53.5272 27.1388 53.5794 27.6137 53.3426 27.9767L52.0618 29.9457C52.4104 30.5818 52.6901 31.24 52.897 31.9128L55.1996 32.4152C55.6284 32.5087 55.9323 32.8827 55.9323 33.3117V36.355C55.9323 36.784 55.6284 37.158 55.2014 37.2497L52.8989 37.752C52.6919 38.4248 52.4123 39.083 52.0636 39.7173L53.3426 41.668C53.5813 42.0292 53.5309 42.5058 53.2214 42.8102L51.0196 44.9918C50.7082 45.298 50.2253 45.3493 49.8562 45.1183L47.8538 43.8588C47.2068 44.2017 46.5394 44.4767 45.857 44.6802L45.3592 46.9407C45.2641 47.3733 44.8763 47.6667 44.4494 47.6667Z" fill="#FF6B00"/>
<path d="M45.4751 39.5598C45.1768 39.5598 44.8822 39.4168 44.7013 39.1547C44.4142 38.7348 44.528 38.1647 44.9568 37.8823C45.9915 37.1967 46.6105 36.0563 46.6105 34.8335C46.6105 32.8113 44.9381 31.1668 42.8817 31.1668C42.6281 31.1668 42.3764 31.1925 42.1359 31.2402C41.6363 31.3392 41.1385 31.0238 41.0341 30.5252C40.9315 30.0283 41.2559 29.5443 41.7612 29.4435C42.1266 29.372 42.5032 29.3335 42.8817 29.3335C45.9654 29.3335 48.4749 31.8012 48.4749 34.8335C48.4749 36.6687 47.5483 38.3773 45.9934 39.404C45.8349 39.5085 45.6541 39.5598 45.4751 39.5598Z" fill="#FF6B00"/>
<path d="M13.0512 25.6668C9.9675 25.6668 7.45801 23.1991 7.45801 20.1668C7.45801 18.3243 8.39021 16.6138 9.95258 15.5871C10.3758 15.3084 10.9575 15.4184 11.2446 15.8419C11.5299 16.2618 11.4143 16.8319 10.9855 17.1124C9.94513 17.7981 9.32241 18.9384 9.32241 20.1668C9.32241 22.1889 10.9948 23.8334 13.0512 23.8334C13.3011 23.8334 13.5472 23.8096 13.7821 23.7619C14.2761 23.6611 14.7777 23.9819 14.8802 24.4806C14.9828 24.9774 14.6546 25.4596 14.1494 25.5586C13.7933 25.6301 13.4278 25.6668 13.0512 25.6668Z" fill="#FF6B00"/>
<path d="M13.0508 33.0001H11.4847C11.0466 33.0001 10.6663 32.6976 10.5749 32.2759L10.0771 30.0154C9.39475 29.8119 8.72542 29.5369 8.08034 29.1941L6.07797 30.4536C5.70695 30.6846 5.2278 30.6351 4.91644 30.3289L2.71458 28.1656C2.40509 27.8612 2.35288 27.3864 2.58966 27.0234L3.87051 25.0544C3.52186 24.4182 3.2422 23.7601 3.03525 23.0872L0.732712 22.5849C0.303898 22.4914 0 22.1174 0 21.6884V18.6451C0 18.2161 0.303898 17.8421 0.730847 17.7504L3.03339 17.2481C3.24034 16.5752 3.52 15.9171 3.86864 15.2827L2.59153 13.3302C2.35288 12.9691 2.40322 12.4924 2.71271 12.1881L4.91458 10.0064C5.2222 9.69839 5.70695 9.64706 6.07797 9.87989L8.08034 11.1394C8.72729 10.7966 9.39475 10.5216 10.0771 10.3181L10.5749 8.05756C10.6831 7.56072 11.1883 7.24539 11.6824 7.35539C12.1858 7.46172 12.5046 7.94939 12.3964 8.44439L11.7812 11.2494C11.7066 11.5941 11.4363 11.8636 11.0895 11.9461C10.2095 12.1551 9.35186 12.5071 8.53898 12.9929C8.23695 13.1762 7.85288 13.1707 7.55271 12.9837L5.70695 11.8232L4.5622 12.9562L5.74237 14.7566C5.93814 15.0517 5.94186 15.4312 5.75542 15.7301C5.26136 16.5276 4.90339 17.3709 4.69271 18.2362C4.60881 18.5772 4.33661 18.8412 3.98797 18.9182L1.86441 19.3802V20.9514L3.98797 21.4152C4.33661 21.4922 4.60881 21.7562 4.69271 22.0972C4.90339 22.9626 5.26322 23.8059 5.75542 24.6034C5.94186 24.9022 5.93814 25.2799 5.74424 25.5751L4.5622 27.3901L5.70322 28.5121L7.55085 27.3497C7.85102 27.1627 8.23695 27.1591 8.53712 27.3406C9.35 27.8264 10.2076 28.1784 11.0858 28.3874C11.4344 28.4699 11.7029 28.7412 11.7775 29.0841L12.2361 31.1667H13.0508C13.5654 31.1667 13.9831 31.5774 13.9831 32.0834C13.9831 32.5894 13.5654 33.0001 13.0508 33.0001Z" fill="#FF6B00"/>
<path d="M27.034 32.0831C26.9594 32.0831 26.8848 32.074 26.8084 32.0556C26.3068 31.9328 26.0048 31.436 26.1297 30.9446L27.9941 23.6113C28.1172 23.1181 28.615 22.8211 29.124 22.944C29.6255 23.0668 29.9275 23.5636 29.8026 24.055L27.9382 31.3883C27.8338 31.8063 27.4535 32.0831 27.034 32.0831Z" fill="#FF6B00"/>
<path d="M32.627 32.0835C32.3884 32.0835 32.1497 31.9937 31.967 31.8158C31.6034 31.4583 31.6034 30.8772 31.967 30.5197L35.0377 27.5002L31.9689 24.4825C31.6053 24.125 31.6053 23.5438 31.9689 23.1863C32.3324 22.8288 32.9234 22.8288 33.287 23.1863L37.0158 26.853C37.3794 27.2105 37.3794 27.7917 37.0158 28.1492L33.287 31.8158C33.1043 31.9937 32.8656 32.0835 32.627 32.0835Z" fill="#FF6B00"/>
<path d="M23.305 32.0835C23.0664 32.0835 22.8277 31.9937 22.645 31.8158L18.9162 28.1492C18.5527 27.7917 18.5527 27.2105 18.9162 26.853L22.645 23.1863C23.0086 22.8288 23.5996 22.8288 23.9632 23.1863C24.3267 23.5438 24.3267 24.125 23.9632 24.4825L20.8944 27.5002L23.9632 30.5178C24.3267 30.8753 24.3267 31.4565 23.9632 31.814C23.7823 31.9937 23.5437 32.0835 23.305 32.0835Z" fill="#FF6B00"/>
</svg>
