<svg width="55" height="55" viewBox="0 0 55 55" fill="none" xmlns="http://www.w3.org/2000/svg">
<path d="M35.4838 39.0323V33.7097C35.4838 31.7532 33.892 30.1614 31.9355 30.1614H26.6129C25.6346 30.1614 24.8387 29.3654 24.8387 28.3872V24.8388H31.9356C32.9139 24.8388 33.7097 25.6348 33.7097 26.613V28.3872H35.4839V26.613C35.4839 24.6564 33.8921 23.0647 31.9356 23.0647H30.1614V17.2224L32.1954 19.2565L33.45 18.002L29.2743 13.8262L25.0986 18.0019L26.3532 19.2563L28.3872 17.2224V23.0647H23.0645V28.3872C23.0645 30.3438 24.6562 31.9356 26.6128 31.9356H31.9354C32.9136 31.9356 33.7095 32.7316 33.7095 33.7097V37.2581H26.6127C25.6344 37.2581 24.8385 36.4621 24.8385 35.4839V33.7097H23.0645V35.4839C23.0645 37.4405 24.6562 39.0323 26.6128 39.0323H28.387V47.9033H30.1612V39.0323H35.4838Z" fill="#FF6B00"/>
<path d="M29.2743 55C29.7642 55 30.1614 54.6028 30.1614 54.1129C30.1614 53.623 29.7642 53.2258 29.2743 53.2258C28.7844 53.2258 28.3872 53.623 28.3872 54.1129C28.3872 54.6028 28.7844 55 29.2743 55Z" fill="#FF6B00"/>
<path d="M29.2743 51.4517C29.7642 51.4517 30.1614 51.0545 30.1614 50.5646C30.1614 50.0747 29.7642 49.6775 29.2743 49.6775C28.7844 49.6775 28.3872 50.0747 28.3872 50.5646C28.3872 51.0545 28.7844 51.4517 29.2743 51.4517Z" fill="#FF6B00"/>
<path d="M24.8385 48.7903C24.8385 49.2794 24.4405 49.6774 23.9515 49.6774H14.1934V51.4516H23.9515C25.4188 51.4516 26.6127 50.2577 26.6127 48.7903V40.8064H24.8385V48.7903Z" fill="#FF6B00"/>
<path d="M53.2259 39.0322H51.4517C50.4734 39.0322 49.6776 39.8282 49.6776 40.8064V53.2258H47.9034V44.3548C47.9034 43.3765 47.1074 42.5806 46.1292 42.5806H44.355C43.3767 42.5806 42.5808 43.3766 42.5808 44.3548V53.2258H40.8067V47.9032C40.8067 46.9249 40.0107 46.1291 39.0325 46.1291H37.2583C36.28 46.1291 35.4841 46.925 35.4841 47.9032V53.2258H34.597C34.1079 53.2258 33.7099 52.8278 33.7099 52.3387V40.8064H31.9355V52.3387C31.9355 53.8061 33.1294 55 34.5968 55H53.2258C54.2041 55 55 54.204 55 53.2258V40.8064C55.0001 39.8281 54.2041 39.0322 53.2259 39.0322ZM44.3549 44.3548H46.1291V53.2258H44.3549V44.3548ZM37.2582 47.9031H39.0324V53.2257H37.2582V47.9031ZM53.2259 53.2258H51.4517V40.8064H53.2259V53.2258Z" fill="#FF6B00"/>
<path d="M38.0561 24.6621C38.7038 23.3285 39.0323 21.8956 39.0323 20.4031C39.0323 15.0226 34.6549 10.645 29.2742 10.645C23.8936 10.645 19.5161 15.0225 19.5161 20.4031C19.5161 21.8955 19.8446 23.3285 20.4924 24.6621L22.0883 23.8868C21.5587 22.7968 21.2903 21.6248 21.2903 20.4031C21.2903 16.0008 24.8718 12.4192 29.2742 12.4192C33.6766 12.4192 37.2581 16.0008 37.2581 20.4031C37.2581 21.6248 36.9897 22.7968 36.4602 23.8868L38.0561 24.6621Z" fill="#FF6B00"/>
<path d="M42.5807 20.4031C42.5807 13.066 36.6114 7.09668 29.2742 7.09668C21.9371 7.09668 15.9678 13.066 15.9678 20.4031C15.9678 24.3437 17.6998 28.0588 20.7197 30.5958L21.8608 29.2373C19.2433 27.0383 17.742 23.8184 17.742 20.4031C17.742 14.0442 22.9153 8.87086 29.2742 8.87086C35.6332 8.87086 40.8065 14.0442 40.8065 20.4031C40.8065 23.8184 39.3052 27.0383 36.6875 29.2373L37.8287 30.5958C40.8486 28.0589 42.5807 24.3438 42.5807 20.4031Z" fill="#FF6B00"/>
<path d="M29.2743 5.32252C29.7642 5.32252 30.1614 4.92536 30.1614 4.43543C30.1614 3.9455 29.7642 3.54834 29.2743 3.54834C28.7844 3.54834 28.3872 3.9455 28.3872 4.43543C28.3872 4.92536 28.7844 5.32252 29.2743 5.32252Z" fill="#FF6B00"/>
<path d="M18.6105 9.73953C18.9569 9.3931 18.9569 8.83139 18.6105 8.48495C18.4373 8.31179 18.2103 8.2251 17.9833 8.2251C17.7562 8.2251 17.5292 8.31168 17.356 8.48495C17.0096 8.83139 17.0096 9.39299 17.356 9.73953C17.5292 9.9127 17.7562 9.99938 17.9833 9.99938C18.2103 9.99938 18.4373 9.91291 18.6105 9.73953Z" fill="#FF6B00"/>
<path d="M13.3065 21.2903C13.7964 21.2903 14.1936 20.8931 14.1936 20.4032C14.1936 19.9133 13.7964 19.5161 13.3065 19.5161C12.8166 19.5161 12.4194 19.9133 12.4194 20.4032C12.4194 20.8931 12.8166 21.2903 13.3065 21.2903Z" fill="#FF6B00"/>
<path d="M17.356 31.067C17.0096 31.4134 17.0096 31.9751 17.356 32.3216C17.5292 32.4947 17.7562 32.5814 17.9833 32.5814C18.2103 32.5814 18.4373 32.4948 18.6105 32.3216C18.9569 31.9751 18.9569 31.4135 18.6105 31.067C18.4373 30.8938 18.2103 30.8071 17.9833 30.8071C17.7562 30.8071 17.5292 30.8936 17.356 31.067Z" fill="#FF6B00"/>
<path d="M39.9376 31.067C39.5911 31.4134 39.5911 31.9751 39.9376 32.3216C40.1107 32.4947 40.3377 32.5814 40.5648 32.5814C40.7919 32.5814 41.0189 32.4948 41.1921 32.3216C41.5386 31.9751 41.5386 31.4135 41.1921 31.067C41.019 30.8938 40.792 30.8071 40.5648 30.8071C40.3378 30.8071 40.1108 30.8936 39.9376 31.067Z" fill="#FF6B00"/>
<path d="M45.2421 21.2903C45.732 21.2903 46.1292 20.8931 46.1292 20.4032C46.1292 19.9133 45.732 19.5161 45.2421 19.5161C44.7521 19.5161 44.355 19.9133 44.355 20.4032C44.355 20.8931 44.7521 21.2903 45.2421 21.2903Z" fill="#FF6B00"/>
<path d="M41.1921 9.73953C41.5386 9.3931 41.5386 8.83139 41.1921 8.48495C41.019 8.31179 40.792 8.2251 40.5648 8.2251C40.3377 8.2251 40.1107 8.31168 39.9376 8.48495C39.5911 8.83139 39.5911 9.39299 39.9376 9.73953C40.1107 9.9127 40.3377 9.99938 40.5648 9.99938C40.792 9.99938 41.019 9.91291 41.1921 9.73953Z" fill="#FF6B00"/>
<path d="M15.5148 35.4984L17.8702 37.8538L19.8974 36.5023C20.2232 36.6924 20.5556 36.8732 20.8903 37.0423L21.6902 35.4586C21.2326 35.2275 20.7799 34.9723 20.3451 34.6998L19.8592 34.3955L18.0964 35.5707L14.1066 31.581L15.2818 29.8183L14.9778 29.3325C13.983 27.7432 13.2665 26.0156 12.8485 24.1979L12.72 23.6392L10.6453 23.2241V17.5818L12.7199 17.1669L12.8484 16.6082C13.2666 14.7904 13.9829 13.0629 14.9777 11.4735L15.2817 10.9878L14.1065 9.22507L18.0963 5.23531L19.859 6.4104L20.3448 6.1064C21.934 5.11156 23.6616 4.39506 25.4795 3.97697L26.038 3.8485L26.4532 1.77407H32.0954L32.5104 3.8485L33.0689 3.97697C34.8868 4.39517 36.6142 5.11156 38.2035 6.1064L38.6894 6.4104L40.4521 5.23531L44.4418 9.22507L43.2666 10.9878L43.5706 11.4735C44.5655 13.0628 45.282 14.7904 45.7 16.6082L45.8284 17.1669L47.9032 17.582V23.2242L45.8286 23.6392L45.7002 24.1979C45.282 26.0156 44.5657 27.7431 43.5709 29.3325L43.2668 29.8183L44.442 31.581L40.4523 35.5707L38.6895 34.3955L38.2036 34.6998C37.7687 34.9722 37.3161 35.2274 36.8585 35.4586L37.6583 37.0423C37.9931 36.8732 38.3254 36.6924 38.6513 36.5023L40.6785 37.8538L46.7251 31.8071L45.3736 29.7798C46.2218 28.3271 46.865 26.7764 47.2914 25.1559L49.6777 24.6789V16.1276L47.2913 15.6503C46.8649 14.0299 46.2217 12.479 45.3735 11.0264L46.725 8.99916L40.6784 2.95249L38.6511 4.30397C37.1986 3.45576 35.6477 2.81252 34.0275 2.38627L33.5499 0H24.9986L24.5212 2.38638C22.9009 2.81263 21.3499 3.45587 19.8975 4.30407L17.8703 2.9526L11.8237 8.99927L13.1752 11.0265C12.327 12.4792 11.6837 14.0299 11.2574 15.6504L8.8709 16.1276V24.6789L11.2573 25.1562C11.6836 26.7765 12.3269 28.3275 13.1751 29.78L12.1407 31.3316C10.9291 30.5898 9.50555 30.1614 7.98381 30.1614C3.58155 30.1613 0 33.7428 0 38.1452C0 40.8101 1.34729 43.3073 3.54836 44.782V50.5645C3.54836 53.0102 5.53813 55 7.98381 55C10.4295 55 12.4193 53.0102 12.4193 50.5645V44.782C14.6203 43.3073 15.9676 40.8102 15.9676 38.1452C15.9677 37.2176 15.807 36.3273 15.5148 35.4984ZM5.32254 47.9032H10.6451V49.6774H5.32254V47.9032ZM7.09683 38.1452C7.09683 37.6561 7.49482 37.2581 7.98392 37.2581C8.47301 37.2581 8.87101 37.6561 8.87101 38.1452C8.87101 38.6343 8.47301 39.0323 7.98392 39.0323C7.49482 39.0323 7.09683 38.6343 7.09683 38.1452ZM7.98392 53.2258C6.82752 53.2258 5.84149 52.4841 5.47519 51.4516H10.4926C10.1263 52.4841 9.14031 53.2258 7.98392 53.2258ZM11.088 43.5223L10.6452 43.7786V46.1291H8.87101V40.6539C9.90344 40.2877 10.6452 39.3018 10.6452 38.1452C10.6452 36.6777 9.4513 35.4839 7.98392 35.4839C6.51653 35.4839 5.32265 36.6777 5.32265 38.1452C5.32265 39.3016 6.06439 40.2876 7.09683 40.6539V46.1291H5.32254V43.7786L4.87975 43.5223C2.96409 42.4138 1.77418 40.3533 1.77418 38.1452C1.77418 34.7212 4.55974 31.9356 7.98381 31.9356C11.4079 31.9356 14.1934 34.7212 14.1934 38.1452C14.1935 40.3533 13.0036 42.4138 11.088 43.5223Z" fill="#FF6B00"/>
</svg>
