<svg width="55" height="55" viewBox="0 0 55 55" fill="none" xmlns="http://www.w3.org/2000/svg">
<path d="M51.7769 8.59375H49.1987V3.22266C49.1987 1.44568 47.753 0 45.9761 0H9.02295C7.24598 0 5.80029 1.44568 5.80029 3.22266V8.59375H3.22217C1.4452 8.59375 -0.000488281 10.0394 -0.000488281 11.8164V42.7537C-0.000488281 44.5307 1.4452 45.9763 3.22217 45.9763H22.1284V48.5543H20.0848C18.3079 48.5543 16.8622 49.9999 16.8622 51.7769V53.9258C16.8622 54.5191 17.3431 55 17.9364 55H37.0627C37.656 55 38.137 54.5191 38.137 53.9258V51.7769C38.137 49.9999 36.6913 48.5543 34.9143 48.5543H32.8706V45.9763H51.7769C53.5538 45.9763 54.9995 44.5307 54.9995 42.7537V11.8164C54.9995 10.0394 53.5538 8.59375 51.7769 8.59375ZM51.7769 10.7422C52.3692 10.7422 52.8511 11.2241 52.8511 11.8164V36.5232H49.1987V10.7422H51.7769ZM9.02295 2.14844H45.9761C46.5684 2.14844 47.0503 2.63033 47.0503 3.22266V8.59375H7.94873V3.22266C7.94873 2.63033 8.43062 2.14844 9.02295 2.14844ZM3.22217 10.7422H5.80029V18.7978C5.80029 19.391 6.28122 19.872 6.87451 19.872C7.4678 19.872 7.94873 19.391 7.94873 18.7978V10.7422H47.0503V36.5232H41.5718V32.9832C41.5718 32.39 41.0909 31.909 40.4976 31.909H39.0999C38.8542 31.0632 38.5171 30.25 38.092 29.4773L39.0808 28.4886C39.5003 28.0691 39.5003 27.3889 39.0808 26.9693L35.8194 23.708C35.4 23.2886 34.7198 23.2886 34.3002 23.708L33.3115 24.6968C32.5389 24.2717 31.7256 23.9346 30.8798 23.689V22.2913C30.8798 21.698 30.3988 21.2171 29.8055 21.2171H25.1933C24.6 21.2171 24.1191 21.698 24.1191 22.2913V23.689C23.2732 23.9347 22.46 24.2717 21.6873 24.6968L20.6986 23.708C20.2792 23.2886 19.599 23.2886 19.1794 23.708L15.918 26.9693C15.4986 27.3888 15.4986 28.069 15.918 28.4886L16.9069 29.4773C16.4817 30.2499 16.1446 31.0632 15.8989 31.909H14.5015C13.9082 31.909 13.4272 32.39 13.4272 32.9832V36.5232H7.94873V28.4657C7.94873 27.8724 7.4678 27.3915 6.87451 27.3915C6.28122 27.3915 5.80029 27.8724 5.80029 28.4657V36.5232H2.14795V11.8164C2.14795 11.2241 2.62984 10.7422 3.22217 10.7422ZM19.018 28.5499L18.197 27.7289L19.9392 25.9867L20.7602 26.8078C21.1187 27.166 21.6789 27.2252 22.1042 26.9495C23.1208 26.2903 24.2355 25.8283 25.4175 25.5763C25.9133 25.4706 26.2677 25.0326 26.2677 24.5257V23.3653H28.7315V24.5257C28.7315 25.0326 29.0859 25.4706 29.5818 25.5763C30.7636 25.8283 31.8783 26.2902 32.895 26.9495C33.3204 27.2252 33.8806 27.1661 34.2391 26.8078L35.0601 25.9867L36.8022 27.7289L35.9812 28.5499C35.6229 28.9084 35.5637 29.4686 35.8395 29.894C36.4987 30.9106 36.9607 32.0254 37.2127 33.2072C37.3184 33.703 37.7564 34.0575 38.2633 34.0575H39.4233V36.5232H32.7263C32.8219 36.1204 32.8713 35.7064 32.8713 35.2894C32.8713 32.3273 30.4615 29.9176 27.4995 29.9176C24.5376 29.9176 22.1278 32.3274 22.1278 35.2894C22.1278 35.7064 22.1771 36.1204 22.2727 36.5232H15.5757V34.0575H16.7359C17.2429 34.0575 17.6808 33.7031 17.7865 33.2072C18.0385 32.0253 18.5006 30.9105 19.1597 29.894C19.4356 29.4687 19.3765 28.9084 19.018 28.5499ZM24.2762 35.2894C24.2762 33.5121 25.7221 32.0661 27.4995 32.0661C29.2769 32.0661 30.7228 33.5121 30.7228 35.2894C30.7228 35.7136 30.637 36.1326 30.474 36.5232H24.525C24.362 36.1326 24.2762 35.7136 24.2762 35.2894ZM35.9884 51.7769V52.8516H19.0106V51.7769C19.0106 51.1846 19.4925 50.7027 20.0848 50.7027H34.9143C35.5066 50.7027 35.9884 51.1846 35.9884 51.7769ZM30.7222 48.5543H24.2769V45.9763H30.7222V48.5543ZM51.7769 43.8279H3.22217C2.62984 43.8279 2.14795 43.346 2.14795 42.7537V38.6717H52.8511V42.7537C52.8511 43.346 52.3692 43.8279 51.7769 43.8279Z" fill="#FF6B00"/>
<path d="M30.7222 6.44531H42.3237C42.917 6.44531 43.3979 5.96438 43.3979 5.37109C43.3979 4.7778 42.917 4.29688 42.3237 4.29688H30.7222C30.1289 4.29688 29.6479 4.7778 29.6479 5.37109C29.6479 5.96438 30.1289 6.44531 30.7222 6.44531Z" fill="#FF6B00"/>
<path d="M17.4019 6.44531C17.6844 6.44531 17.9615 6.33037 18.1613 6.13057C18.3611 5.93076 18.4761 5.65361 18.4761 5.37109C18.4761 5.08857 18.3611 4.81143 18.1613 4.61162C17.9615 4.41182 17.6844 4.29688 17.4019 4.29688C17.1193 4.29688 16.8422 4.41182 16.6424 4.61162C16.4426 4.81143 16.3276 5.08857 16.3276 5.37109C16.3276 5.65361 16.4426 5.93076 16.6424 6.13057C16.8422 6.33037 17.1193 6.44531 17.4019 6.44531Z" fill="#FF6B00"/>
<path d="M12.6753 6.44531C12.9578 6.44531 13.235 6.33037 13.4348 6.13057C13.6346 5.93076 13.7495 5.65361 13.7495 5.37109C13.7495 5.08857 13.6346 4.81143 13.4348 4.61162C13.235 4.41182 12.9578 4.29688 12.6753 4.29688C12.3928 4.29688 12.1156 4.41182 11.9158 4.61162C11.716 4.81143 11.6011 5.08857 11.6011 5.37109C11.6011 5.65361 11.716 5.93076 11.9158 6.13057C12.1156 6.33037 12.3928 6.44531 12.6753 6.44531Z" fill="#FF6B00"/>
<path d="M22.1284 6.44531C22.4109 6.44531 22.6881 6.33037 22.8879 6.13057C23.0877 5.93076 23.2026 5.65361 23.2026 5.37109C23.2026 5.08857 23.0877 4.81143 22.8879 4.61162C22.6881 4.41182 22.4109 4.29688 22.1284 4.29688C21.8459 4.29688 21.5687 4.41182 21.3689 4.61162C21.1691 4.81143 21.0542 5.08857 21.0542 5.37109C21.0542 5.65361 21.1691 5.93076 21.3689 6.13057C21.5687 6.33037 21.8459 6.44531 22.1284 6.44531Z" fill="#FF6B00"/>
<path d="M12.0308 15.8982H14.5872C15.1805 15.8982 15.6614 15.4173 15.6614 14.824C15.6614 14.2307 15.1805 13.7498 14.5872 13.7498H12.0308C11.4375 13.7498 10.9565 14.2307 10.9565 14.824C10.9565 15.4173 11.4375 15.8982 12.0308 15.8982Z" fill="#FF6B00"/>
<path d="M19.314 15.8982H29.1686C29.7619 15.8982 30.2429 15.4173 30.2429 14.824C30.2429 14.2307 29.7619 13.7498 29.1686 13.7498H19.314C18.7207 13.7498 18.2397 14.2307 18.2397 14.824C18.2397 15.4173 18.7207 15.8982 19.314 15.8982Z" fill="#FF6B00"/>
<path d="M12.0308 21.0542H18.2612C18.8545 21.0542 19.3354 20.5733 19.3354 19.98C19.3354 19.3867 18.8545 18.9058 18.2612 18.9058H12.0308C11.4375 18.9058 10.9565 19.3867 10.9565 19.98C10.9565 20.5733 11.4375 21.0542 12.0308 21.0542Z" fill="#FF6B00"/>
<path d="M33.895 15.8982H42.9683C43.5616 15.8982 44.0425 15.4173 44.0425 14.824C44.0425 14.2307 43.5616 13.7498 42.9683 13.7498H33.895C33.3017 13.7498 32.8208 14.2307 32.8208 14.824C32.8208 15.4173 33.3017 15.8982 33.895 15.8982Z" fill="#FF6B00"/>
<path d="M42.9681 18.9058H35.6162C35.0229 18.9058 34.542 19.3867 34.542 19.98C34.542 20.5733 35.0229 21.0542 35.6162 21.0542H42.9681C43.5613 21.0542 44.0423 20.5733 44.0423 19.98C44.0423 19.3867 43.5613 18.9058 42.9681 18.9058Z" fill="#FF6B00"/>
<path d="M6.87451 24.7061C7.15703 24.7061 7.43418 24.5911 7.63398 24.3913C7.83379 24.1915 7.94873 23.9144 7.94873 23.6318C7.94873 23.3493 7.83379 23.0722 7.63398 22.8724C7.43418 22.6726 7.15703 22.5576 6.87451 22.5576C6.59199 22.5576 6.31484 22.6726 6.11504 22.8724C5.91523 23.0722 5.80029 23.3493 5.80029 23.6318C5.80029 23.9144 5.91523 24.1915 6.11504 24.3913C6.31484 24.5911 6.59199 24.7061 6.87451 24.7061Z" fill="#FF6B00"/>
</svg>
