<svg width="133" height="47" viewBox="0 0 133 47" fill="none" xmlns="http://www.w3.org/2000/svg">
<rect x="43" width="46.5087" height="46.5087" rx="23.2543" fill="#FF6B00"/>
<path d="M10.1906 12.2089C11.4595 12.2089 12.582 12.3944 13.5581 12.7653C14.5538 13.1362 15.4908 13.6926 16.3693 14.4344L14.0852 17.1578C13.4801 16.6892 12.8846 16.3378 12.299 16.1036C11.7133 15.8693 11.0886 15.7522 10.4248 15.7522C9.05828 15.7522 7.9748 16.3281 7.17439 17.4799C6.39351 18.6317 6.00306 20.4082 6.00306 22.8094C6.00306 25.1716 6.39351 26.9286 7.17439 28.0804C7.9748 29.2127 9.0778 29.7788 10.4834 29.7788C11.2252 29.7788 11.8988 29.6422 12.5039 29.3689C13.1091 29.076 13.7631 28.6661 14.4659 28.139L16.6036 30.8916C15.8422 31.653 14.9149 32.2777 13.8217 32.7657C12.748 33.2538 11.5571 33.4978 10.2491 33.4978C8.37501 33.4978 6.74491 33.0878 5.35883 32.2679C3.97276 31.448 2.88928 30.2376 2.10839 28.6368C1.34703 27.0165 0.966347 25.074 0.966347 22.8094C0.966347 20.6034 1.35679 18.7 2.13768 17.0992C2.93809 15.4984 4.03133 14.288 5.4174 13.4681C6.82299 12.6286 8.41405 12.2089 10.1906 12.2089ZM26.7496 17.0114C27.3157 17.0114 27.833 17.0797 28.3016 17.2163L27.5695 21.6967C26.9838 21.56 26.5153 21.4917 26.1639 21.4917C25.2463 21.4917 24.5435 21.8138 24.0555 22.458C23.587 23.0827 23.216 24.0296 22.9427 25.2985V33H18.316V17.4506H22.3571L22.7377 20.4668C23.0891 19.3931 23.6162 18.5536 24.319 17.9484C25.0414 17.3237 25.8515 17.0114 26.7496 17.0114ZM42.7409 24.9178C42.7409 25.5621 42.7117 26.1184 42.6531 26.587H33.0189C33.1751 27.895 33.546 28.8125 34.1317 29.3396C34.7173 29.8667 35.5275 30.1302 36.5622 30.1302C37.1869 30.1302 37.7921 30.0229 38.3777 29.8081C38.9634 29.5739 39.5979 29.2225 40.2812 28.7539L42.1846 31.3309C40.369 32.7755 38.3485 33.4978 36.1229 33.4978C33.6046 33.4978 31.6719 32.756 30.3249 31.2723C28.9778 29.7886 28.3043 27.7973 28.3043 25.2985C28.3043 23.7172 28.5874 22.3019 29.1535 21.0524C29.7197 19.7835 30.5494 18.7879 31.6426 18.0655C32.7358 17.3237 34.0438 16.9528 35.5666 16.9528C37.8116 16.9528 39.5686 17.6556 40.8375 19.0612C42.1065 20.4668 42.7409 22.419 42.7409 24.9178ZM38.202 23.6001C38.163 21.2184 37.3235 20.0275 35.6837 20.0275C34.8833 20.0275 34.2586 20.3204 33.8096 20.906C33.3801 21.4917 33.1165 22.458 33.0189 23.8051H38.202V23.6001ZM59.2789 11.2718V33H55.1792L54.945 31.1844C53.8517 32.7267 52.3778 33.4978 50.5232 33.4978C48.5905 33.4978 47.1166 32.756 46.1014 31.2723C45.1058 29.7886 44.608 27.7583 44.608 25.1814C44.608 23.6001 44.8715 22.1847 45.3986 20.9353C45.9257 19.6859 46.6676 18.7098 47.6242 18.007C48.6003 17.3042 49.713 16.9528 50.9624 16.9528C52.4461 16.9528 53.676 17.4408 54.6521 18.4169V10.774L59.2789 11.2718ZM51.9581 30.101C53.0318 30.101 53.9298 29.5153 54.6521 28.344V21.6381C54.2812 21.1891 53.9005 20.8572 53.5101 20.6425C53.1392 20.4277 52.7097 20.3204 52.2216 20.3204C51.3626 20.3204 50.6794 20.7206 50.1718 21.521C49.6642 22.3214 49.4104 23.5513 49.4104 25.2107C49.4104 27.0262 49.6252 28.2952 50.0547 29.0175C50.5037 29.7398 51.1381 30.101 51.9581 30.101ZM76.4567 24.9178C76.4567 25.5621 76.4274 26.1184 76.3689 26.587H66.7347C66.8908 27.895 67.2618 28.8125 67.8474 29.3396C68.4331 29.8667 69.2433 30.1302 70.2779 30.1302C70.9027 30.1302 71.5078 30.0229 72.0935 29.8081C72.6792 29.5739 73.3136 29.2225 73.9969 28.7539L75.9003 31.3309C74.0848 32.7755 72.0642 33.4978 69.8387 33.4978C67.3203 33.4978 65.3876 32.756 64.0406 31.2723C62.6936 29.7886 62.0201 27.7973 62.0201 25.2985C62.0201 23.7172 62.3031 22.3019 62.8693 21.0524C63.4354 19.7835 64.2651 18.7879 65.3584 18.0655C66.4516 17.3237 67.7596 16.9528 69.2823 16.9528C71.5274 16.9528 73.2844 17.6556 74.5533 19.0612C75.8222 20.4668 76.4567 22.419 76.4567 24.9178ZM71.9178 23.6001C71.8788 21.2184 71.0393 20.0275 69.3994 20.0275C68.599 20.0275 67.9743 20.3204 67.5253 20.906C67.0958 21.4917 66.8323 22.458 66.7347 23.8051H71.9178V23.6001ZM84.5318 16.9528C85.6445 16.9528 86.689 17.1187 87.6651 17.4506C88.6412 17.7825 89.5002 18.251 90.242 18.8562L88.5436 21.4624C87.2746 20.662 85.9959 20.2618 84.7075 20.2618C84.1023 20.2618 83.6338 20.3692 83.3019 20.5839C82.9895 20.7791 82.8334 21.0622 82.8334 21.4331C82.8334 21.726 82.9017 21.97 83.0383 22.1652C83.1945 22.3409 83.4971 22.5264 83.9461 22.7216C84.3951 22.9168 85.0882 23.1511 86.0252 23.4244C87.6456 23.8929 88.8462 24.5079 89.6271 25.2692C90.4275 26.0111 90.8277 27.0457 90.8277 28.3732C90.8277 29.4274 90.5251 30.345 89.9199 31.1259C89.3147 31.8872 88.485 32.4729 87.4308 32.8829C86.3766 33.2928 85.2053 33.4978 83.9168 33.4978C82.6089 33.4978 81.3887 33.2928 80.2564 32.8829C79.1437 32.4729 78.1968 31.9068 77.416 31.1844L79.6708 28.6661C80.9788 29.6812 82.3551 30.1888 83.7997 30.1888C84.5025 30.1888 85.0491 30.0619 85.4396 29.8081C85.8495 29.5543 86.0545 29.1932 86.0545 28.7246C86.0545 28.3537 85.9764 28.0609 85.8202 27.8461C85.6641 27.6314 85.3615 27.4362 84.9125 27.2605C84.4635 27.0653 83.7509 26.831 82.7748 26.5577C81.2325 26.1087 80.0807 25.484 79.3194 24.6836C78.558 23.8832 78.1773 22.8875 78.1773 21.6967C78.1773 20.7987 78.4311 19.9982 78.9387 19.2954C79.4658 18.5731 80.2076 18.007 81.1642 17.597C82.1403 17.1675 83.2628 16.9528 84.5318 16.9528ZM97.838 17.4506V33H93.2113V17.4506H97.838ZM95.4954 9.25129C96.2958 9.25129 96.9498 9.50508 97.4574 10.0127C97.9845 10.5007 98.248 11.1254 98.248 11.8868C98.248 12.6481 97.9845 13.2826 97.4574 13.7902C96.9498 14.2782 96.2958 14.5223 95.4954 14.5223C94.695 14.5223 94.041 14.2782 93.5334 13.7902C93.0258 13.2826 92.772 12.6481 92.772 11.8868C92.772 11.1254 93.0258 10.5007 93.5334 10.0127C94.041 9.50508 94.695 9.25129 95.4954 9.25129ZM115.795 18.3584C114.78 18.7683 113.287 18.9733 111.315 18.9733C112.33 19.4028 113.072 19.9299 113.54 20.5546C114.009 21.1793 114.243 21.9895 114.243 22.9851C114.243 23.9808 113.98 24.8788 113.453 25.6792C112.926 26.4601 112.164 27.075 111.169 27.524C110.192 27.973 109.041 28.1975 107.713 28.1975C107.088 28.1975 106.493 28.139 105.927 28.0218C105.771 28.0999 105.644 28.2268 105.546 28.4025C105.468 28.5587 105.429 28.7246 105.429 28.9003C105.429 29.1932 105.536 29.4274 105.751 29.6031C105.985 29.7593 106.444 29.8374 107.127 29.8374H109.47C110.661 29.8374 111.705 30.0326 112.603 30.4231C113.501 30.8135 114.194 31.3504 114.683 32.0337C115.171 32.7169 115.415 33.4881 115.415 34.347C115.415 35.9674 114.712 37.2265 113.306 38.1246C111.92 39.0421 109.909 39.5009 107.274 39.5009C105.38 39.5009 103.887 39.2959 102.794 38.8859C101.7 38.4955 100.929 37.9391 100.48 37.2168C100.051 36.4945 99.8359 35.5867 99.8359 34.4934H103.994C103.994 34.962 104.082 35.3329 104.258 35.6062C104.453 35.8795 104.795 36.0845 105.283 36.2212C105.771 36.3578 106.473 36.4261 107.391 36.4261C108.66 36.4261 109.538 36.27 110.026 35.9576C110.515 35.6648 110.759 35.2353 110.759 34.6691C110.759 34.2006 110.573 33.8297 110.202 33.5564C109.831 33.2831 109.275 33.1464 108.533 33.1464H106.278C104.677 33.1464 103.477 32.8633 102.676 32.2972C101.896 31.7115 101.505 30.9697 101.505 30.0717C101.505 29.5055 101.671 28.9589 102.003 28.4318C102.335 27.8852 102.784 27.4362 103.35 27.0848C102.374 26.5577 101.661 25.9427 101.212 25.2399C100.783 24.5176 100.568 23.6489 100.568 22.6337C100.568 20.8963 101.193 19.5199 102.442 18.5048C103.692 17.4701 105.341 16.9528 107.391 16.9528C108.953 16.9918 110.271 16.8357 111.344 16.4843C112.437 16.1329 113.56 15.6155 114.712 14.9322L115.795 18.3584ZM107.508 19.9982C106.786 19.9982 106.21 20.2325 105.78 20.701C105.37 21.15 105.165 21.7748 105.165 22.5752C105.165 23.4146 105.37 24.0686 105.78 24.5371C106.21 24.9862 106.786 25.2107 107.508 25.2107C108.27 25.2107 108.845 24.9862 109.236 24.5371C109.646 24.0881 109.851 23.4146 109.851 22.5166C109.851 20.8377 109.07 19.9982 107.508 19.9982ZM126.712 16.9528C128.059 16.9528 129.113 17.3628 129.874 18.1827C130.635 19.0026 131.016 20.1544 131.016 21.6381V33H126.389V22.4288C126.389 21.6479 126.263 21.111 126.009 20.8182C125.774 20.5058 125.413 20.3496 124.925 20.3496C123.988 20.3496 123.09 21.0232 122.231 22.3702V33H117.604V17.4506H121.646L121.968 19.2954C122.631 18.5146 123.344 17.9289 124.105 17.5385C124.886 17.148 125.755 16.9528 126.712 16.9528Z" fill="white"/>
</svg>
