<svg width="29" height="23" viewBox="0 0 29 23" fill="none" xmlns="http://www.w3.org/2000/svg">
<path d="M11.7391 0L1.09383 0C0.636378 0 0.265625 0.411081 0.265625 0.918297L0.265625 12.7215C0.265625 13.2287 0.636378 13.6398 1.09383 13.6398H5.58816L5.58816 21.574C5.58816 22.081 5.95892 22.4923 6.41637 22.4923H9.07786C9.43416 22.4923 9.75078 22.2393 9.86336 21.8643L12.5246 13.0121C12.5529 12.9183 12.5673 12.8203 12.5673 12.7215L12.5673 0.918297C12.5673 0.411081 12.1966 0 11.7391 0V0ZM10.9109 12.5725L8.48086 20.6555H7.24458V12.7215C7.24458 12.2143 6.87383 11.8032 6.41637 11.8032H1.92204L1.92204 1.83659L10.9109 1.83659L10.9109 12.5725Z" fill="#FF6B00"/>
<path d="M27.7069 0L17.0616 0C16.6042 0 16.2334 0.411081 16.2334 0.918297V12.7215C16.2334 13.2287 16.6042 13.6398 17.0616 13.6398H21.5562L21.5562 21.574C21.5562 22.081 21.9269 22.4923 22.3844 22.4923H25.0456C25.4021 22.4923 25.7186 22.2393 25.8314 21.8643L28.4926 13.0121C28.5207 12.9183 28.5351 12.8203 28.5351 12.7215V0.918297C28.5351 0.411081 28.1644 0 27.7069 0ZM26.8787 12.5725L24.4486 20.6555H23.2126V12.7215C23.2126 12.2143 22.8416 11.8032 22.3844 11.8032H17.8898V1.83659L26.8787 1.83659V12.5725Z" fill="#FF6B00"/>
</svg>
