<svg width="19" height="13" viewBox="0 0 19 13" fill="none" xmlns="http://www.w3.org/2000/svg">
<path d="M18.8488 10.5939C18.2098 8.89071 17.1331 7.386 15.7273 6.23145C14.3214 5.0769 12.6361 4.31329 10.8411 4.01758L10.8292 2.70755C10.8234 2.46732 10.7477 2.234 10.6114 2.03613C10.475 1.83826 10.284 1.68443 10.0615 1.59346C9.83913 1.50249 9.59503 1.47832 9.35909 1.52392C9.12316 1.56952 8.90564 1.68291 8.73315 1.85021L4.51985 6.06382C4.2906 6.2945 4.16198 6.60654 4.16211 6.93176C4.16224 7.25698 4.2911 7.56893 4.52053 7.79943L8.72194 12.0005C8.89495 12.1686 9.11341 12.2823 9.35034 12.3277C9.58727 12.3731 9.8323 12.348 10.0552 12.2557C10.278 12.1634 10.469 12.0078 10.6044 11.8082C10.7399 11.6086 10.8139 11.3737 10.8173 11.1325V9.82905C13.0328 9.90511 15.17 10.6672 16.9338 12.0101C17.1458 12.1805 17.4084 12.276 17.6804 12.2815C17.9524 12.287 18.2186 12.2022 18.4374 12.0404C18.6561 11.8787 18.8152 11.649 18.8896 11.3873C18.964 11.1256 18.9497 10.8466 18.8488 10.5939ZM10.7414 8.47109C10.5763 8.46504 10.4116 8.49226 10.2572 8.55113C10.1028 8.61 9.96188 8.69931 9.84271 8.81377C9.72354 8.92822 9.6286 9.06547 9.56355 9.21736C9.4985 9.36924 9.46466 9.53266 9.46405 9.69789V10.8289L5.56661 6.93141L9.47859 3.01876L9.4885 4.13718C9.49112 4.43167 9.59957 4.71539 9.79404 4.93656C9.98851 5.15772 10.256 5.30156 10.5478 5.34184C12.0521 5.55844 13.4744 6.16202 14.6754 7.09346C15.8764 8.0249 16.8149 9.25227 17.399 10.6554C15.4366 9.30105 13.1247 8.54253 10.7414 8.47109Z" fill="#FF6B00"/>
<path d="M1.34846 6.92257L5.56111 2.03887C5.67422 1.90252 5.72935 1.72723 5.71464 1.55068C5.69994 1.37412 5.61657 1.21038 5.48246 1.09461C5.34834 0.978845 5.17417 0.920297 4.99736 0.931541C4.82055 0.942785 4.6552 1.02293 4.53683 1.15475L0.323543 6.03874C0.11438 6.28951 -0.000123562 6.60574 1.00059e-07 6.93228C0.000123762 7.25883 0.114867 7.57497 0.32422 7.82557L4.52565 12.6957C4.5837 12.763 4.65444 12.8181 4.73381 12.8581C4.81318 12.898 4.89964 12.9219 4.98824 12.9284C5.07685 12.9349 5.16587 12.9239 5.25022 12.896C5.33457 12.8681 5.41259 12.8238 5.47985 12.7658C5.5471 12.7077 5.60226 12.637 5.64217 12.5576C5.68209 12.4782 5.70598 12.3918 5.71248 12.3032C5.71898 12.2146 5.70797 12.1255 5.68007 12.0412C5.65217 11.9568 5.60793 11.8788 5.54987 11.8116L1.34846 6.92257Z" fill="#FF6B00"/>
</svg>
