<svg width="18" height="18" viewBox="0 0 18 18" fill="none" xmlns="http://www.w3.org/2000/svg">
<g clip-path="url(#clip0_136_2540)">
<path d="M10.538 18.0001C14.659 18.0001 17.9998 14.6593 17.9998 10.5382C17.9998 6.41719 14.659 3.07642 10.538 3.07642C6.41694 3.07642 3.07617 6.41719 3.07617 10.5382C3.07617 14.6593 6.41694 18.0001 10.538 18.0001Z" fill="#FF6B00"/>
<path d="M7.8544 15.3165C11.9754 15.3165 15.3162 11.9757 15.3162 7.85464C15.3162 3.73359 11.9754 0.392822 7.8544 0.392822C3.73335 0.392822 0.392578 3.73359 0.392578 7.85464C0.392578 11.9757 3.73335 15.3165 7.8544 15.3165Z" stroke="#010101" stroke-linecap="round" stroke-linejoin="round"/>
<path d="M7.85439 11.4546C9.84262 11.4546 11.4544 9.84286 11.4544 7.85464C11.4544 5.86641 9.84262 4.25464 7.85439 4.25464C5.86617 4.25464 4.25439 5.86641 4.25439 7.85464C4.25439 9.84286 5.86617 11.4546 7.85439 11.4546Z" stroke="#010101" stroke-linecap="round" stroke-linejoin="round"/>
</g>
<defs>
<clipPath id="clip0_136_2540">
<rect width="18" height="18" fill="white"/>
</clipPath>
</defs>
</svg>
